<?xml version="1.0" encoding="utf-8"?>
<!-- Generator: Adobe Illustrator 24.1.2, SVG Export Plug-In . SVG Version: 6.00 Build 0)  -->
<svg version="1.1" id="Слой_1" xmlns="http://www.w3.org/2000/svg" xmlns:xlink="http://www.w3.org/1999/xlink" x="0px" y="0px"
	 viewBox="0 0 595.28 841.89" style="enable-background:new 0 0 595.28 841.89;" xml:space="preserve">
<style type="text/css">
	.st0{fill:#FFFFFF;}
	.st1{fill:none;stroke:#E66150;stroke-width:0.8107;stroke-miterlimit:10;}
	.st2{fill:#EB5D4C;}
	.st3{opacity:0.51;fill:#36A9E1;}
	.st4{fill:#C6E2CA;}
	.st5{opacity:0.65;fill:#BFE3F9;}
	.st6{opacity:0.58;fill:#F59E00;}
	.st7{fill:#90C8A1;}
	.st8{fill:#F6E4DD;}
	.st9{fill:#E62D35;}
	.st10{fill:#F7B58F;}
	.st11{fill:#D67F4B;}
	.st12{fill:#EE723F;}
	.st13{fill:#C17C52;}
	.st14{fill:#DA0E1D;}
	.st15{fill:#56A0D8;}
	.st16{fill:#2A3B52;}
	.st17{fill:#F8B690;}
	.st18{fill:#3B3355;}
	.st19{fill:#E5E8F4;}
	.st20{fill:#FCD4B0;}
	.st21{fill:#C0C1CC;}
	.st22{fill:#CA8158;}
	.st23{fill:#007AB2;}
	.st24{fill:#343E50;}
	.st25{fill:#EEAA84;}
	.st26{fill:#D8936C;}
	.st27{fill:#00445B;}
	.st28{fill:#CBB8AF;}
	.st29{fill:#B45319;}
	.st30{fill:#103C5F;}
	.st31{fill:#F1DED6;}
	.st32{fill:#BE1A1D;}
	.st33{fill:#F8AA3D;}
	.st34{fill:#C76C17;}
	.st35{fill:#EBA87F;}
	.st36{fill:#005685;}
	.st37{fill:#006495;}
	.st38{fill:#CEBBB2;}
	.st39{fill:#2C3B50;}
	.st40{fill:#2485C1;}
	.st41{opacity:0.77;}
	.st42{fill:#52AF7C;}
	.st43{fill:none;stroke:#36A9E1;stroke-width:2;stroke-miterlimit:10;}
	.st44{opacity:0.64;}
	.st45{fill:#36A9E1;}
	.st46{fill:#2D2E83;}
	.st47{fill:#131516;}
	.st48{fill:#1D71B8;}
	.st49{fill:#252424;}
	.st50{fill:#111314;}
	.st51{fill:none;stroke:#464A9A;stroke-width:1.126;stroke-miterlimit:10;}
	.st52{fill:#464A9A;}
	.st53{fill:#F28E7C;}
	.st54{opacity:0.5;fill:#F28E7C;}
	.st55{fill:#639CD4;}
	.st56{opacity:0.2;fill:#639CD4;}
	.st57{fill:#A1BEE5;}
	.st58{opacity:0.5;}
	.st59{fill:#F8F7F7;}
	.st60{fill:#322673;}
	.st61{fill:#F9B97F;}
	.st62{fill:#93CCAA;}
	.st63{fill:#F6B200;}
	.st64{fill:#8EC39E;}
	.st65{opacity:0.33;fill:none;stroke:#36A9E1;stroke-width:0.5;stroke-miterlimit:10;}
	.st66{opacity:0.33;fill:none;stroke:#36A9E1;stroke-width:0.3952;stroke-miterlimit:10;}
</style>
<g id="XMLID_199_">
	<rect id="XMLID_525_" x="300.23" y="279.44" class="st0" width="226.35" height="250.87"/>
	<rect id="XMLID_486_" x="300.23" y="279.44" class="st1" width="226.35" height="250.87"/>
</g>
<path id="XMLID_47_" class="st2" d="M502.35,0c0,0,63.51,35.06,64.5,126.92c0.82,75.77-54.83,161.85-54.83,245.36
	c0,132.68,83.26,125.56,83.26,125.56V0H502.35z"/>
<g id="XMLID_25_">
	<path id="XMLID_15_" class="st3" d="M431.99,670.58c-47.62-35.68-283.96,17.39-340.79,11.89c-87.8-8.5-86.06-81.55-108.64-81.55
		c-95.44,0,19.94,222.58,11.91,253.16c-10.2,38.85,349.72,33.98,406.27,13.59C424.32,859.17,517.18,734.42,431.99,670.58z"/>
	<path id="XMLID_42_" class="st4" d="M-0.89,586.27c0,0-7.6,113.46,123.54,100.61c75.7-7.41,186.33-32.12,271.02-14.31
		c130.76,27.5,29.21,176.56,29.21,176.56l-423.83-0.03L-0.89,586.27z"/>
</g>
<g id="XMLID_196_">
	<g>
		<path class="st2" d="M427.38,522.67v-3.83h6.2v4.32c0,2.39,0.2,4.07,0.61,5.04s1.17,1.45,2.29,1.45s1.87-0.4,2.23-1.2
			c0.37-0.8,0.55-2.1,0.55-3.91s-0.33-3.38-0.98-4.72s-1.68-2.75-3.1-4.21l-3.17-3.27c-1.48-1.55-2.63-3.15-3.45-4.81
			c-0.82-1.66-1.23-3.58-1.23-5.76c0-3.55,0.68-6.18,2.05-7.91c1.37-1.72,3.72-2.59,7.06-2.59s5.59,1.01,6.78,3.02
			c1.18,2.01,1.77,4.94,1.77,8.8v2.66h-6.03v-3.08c0-2.08-0.18-3.58-0.54-4.48s-1.05-1.36-2.06-1.36c-1.02,0-1.75,0.34-2.2,1.03
			c-0.45,0.68-0.67,1.71-0.67,3.08s0.23,2.46,0.68,3.27c0.46,0.81,1.28,1.86,2.47,3.13l3.54,3.83c1.77,1.92,3.11,3.87,4.02,5.83
			c0.9,1.97,1.35,4.12,1.35,6.45c0,4.02-0.68,6.99-2.03,8.91c-1.35,1.92-3.71,2.88-7.09,2.88c-3.38,0-5.73-1.07-7.06-3.21
			C428.04,529.9,427.38,526.78,427.38,522.67z"/>
		<path class="st2" d="M466.24,532.26c-1.48,1.99-3.81,2.99-6.98,2.99s-5.55-1.06-7.12-3.19s-2.36-5.18-2.36-9.17v-18.73
			c0-6.4,1.68-10.39,5.03-11.99c1.24-0.59,2.73-0.88,4.49-0.88c6.04,0,9.06,3.81,9.06,11.43v5.91h-6.32v-5.49
			c0-2.21-0.19-3.8-0.56-4.75s-1.11-1.43-2.2-1.43s-1.85,0.5-2.27,1.51c-0.42,1.01-0.63,2.56-0.63,4.64v20.07
			c0,2.31,0.2,3.96,0.61,4.96c0.41,0.99,1.15,1.49,2.22,1.49s1.81-0.5,2.22-1.51c0.41-1.01,0.61-2.68,0.61-5v-6.15h6.42v6.08
			C468.46,527.19,467.72,530.26,466.24,532.26z"/>
		<path class="st2" d="M471.83,534.76l6.13-42.97h8.64l6.52,42.97h-6.1l-1.03-7.67h-6.93l-0.93,7.67H471.83z M485.31,521.84
			l-2.88-21.58h-0.1l-2.64,21.58H485.31z"/>
		<path class="st2" d="M497.61,534.76v-42.97h5.13l9.11,25.78l-0.46-11.72v-14.06h5.88v42.97h-4.64l-9.35-26.68l0.37,11.28v15.41
			H497.61z"/>
	</g>
</g>
<g id="XMLID_193_">
</g>
<circle id="XMLID_61_" class="st5" cx="554.24" cy="660.13" r="16.77"/>
<circle id="XMLID_27_" class="st5" cx="512.79" cy="752.38" r="8.53"/>
<circle id="XMLID_31_" class="st5" cx="440.44" cy="594.8" r="8.53"/>
<path id="XMLID_45_" class="st6" d="M-47.38,259.86c0,0,55.51,19.65,71.21-60.97C38.84,121.76,4.01,89.49,5.42,62.85
	c2.42-45.93,40.2-3.71,54.25-25.98C73.72,14.6,68.39-9.98,68.39-9.98H-47.38V259.86z"/>
<g id="XMLID_14_">
</g>
<g id="XMLID_40_">
	<g id="XMLID_5_">
		<g>
			<path class="st7" d="M52.37,167.78h12.13v2.83h-4.03v40.14h-3.61v-40.14h-4.49V167.78z"/>
			<path class="st7" d="M71.26,179.79c0-5.19,0.65-8.58,1.95-10.17c1.3-1.59,3.3-2.38,6.01-2.38c2.7,0,4.57,0.88,5.59,2.64
				c0.68,1.19,1.11,2.57,1.29,4.15c0.18,1.58,0.27,3.5,0.27,5.76v18.29c0,3.73-0.22,6.35-0.67,7.87c-0.45,1.52-0.95,2.61-1.5,3.26
				c-1.17,1.35-2.95,2.03-5.35,2.03c-3.56,0-5.79-1.54-6.69-4.61c-0.6-2.02-0.9-4.87-0.9-8.54V179.79z M82.73,179.5
				c0-3.42-0.25-5.82-0.74-7.2c-0.5-1.38-1.51-2.08-3.04-2.08c-1.53,0-2.59,0.71-3.17,2.14c-0.59,1.42-0.88,3.8-0.88,7.12v18.6
				c0,3.96,0.2,6.49,0.61,7.59c0.41,1.11,0.86,1.82,1.35,2.12c0.5,0.31,1.15,0.46,1.97,0.46c0.81,0,1.46-0.15,1.95-0.46
				c0.49-0.31,0.94-1.01,1.34-2.11c0.41-1.1,0.61-3.63,0.61-7.6V179.5z"/>
			<path class="st7" d="M106.14,180.35c0-4.44,0.44-7.54,1.32-9.28c1.27-2.55,3.36-3.83,6.27-3.83c1.87,0,3.3,0.37,4.3,1.1
				c0.99,0.73,1.64,1.53,1.93,2.39c0.55,1.61,0.88,3.15,0.99,4.6c0.11,1.46,0.16,3.11,0.16,4.97v3.59h-3.71v-6.64
				c0-2.44-0.24-4.22-0.73-5.35s-1.46-1.68-2.92-1.68c-1.46,0-2.48,0.73-3.08,2.19c-0.59,1.46-0.89,3.98-0.89,7.56v17.53
				c0,4.05,0.26,6.86,0.78,8.42c0.52,1.56,1.55,2.34,3.08,2.34c1.53,0,2.56-0.79,3.08-2.37c0.52-1.58,0.78-4.36,0.78-8.35v-5.42
				h-3.69v-3.1h7.3v21.73h-2.39l-0.39-2.49c-0.6,1.01-1.31,1.76-2.12,2.25c-0.81,0.49-1.86,0.73-3.15,0.73
				c-2.41,0-4.16-1.05-5.26-3.16c-1.1-2.11-1.65-5.54-1.65-10.31V180.35z"/>
			<path class="st7" d="M130.98,167.78h11.35v2.83h-7.71v16.8h7.25v2.95h-7.25v17.5h7.64v2.88h-11.28V167.78z"/>
			<path class="st7" d="M147.86,167.78h12.13v2.83h-4.03v40.14h-3.61v-40.14h-4.49V167.78z"/>
			<path class="st7" d="M178.54,167.78h3.64v42.97h-3.64V167.78z"/>
			<path class="st7" d="M205.63,167.78h3.17v42.97h-2.83l-9.89-32.37l0.24,11.62v20.75h-3.42v-42.97h2.54l10.55,33.23l-0.37-14.79
				V167.78z"/>
			<path class="st7" d="M229.84,167.78h3.64v40.09h7.62v2.88h-11.25V167.78z"/>
			<path class="st7" d="M248.38,167.78h3.64v42.97h-3.64V167.78z"/>
			<path class="st7" d="M275.46,167.78h3.17v42.97h-2.83l-9.89-32.37l0.24,11.62v20.75h-3.42v-42.97h2.54l10.55,33.23l-0.37-14.79
				V167.78z"/>
			<path class="st7" d="M288.95,167.78h11.35v2.83h-7.71v16.8h7.25v2.95h-7.25v17.5h7.64v2.88h-11.28V167.78z"/>
		</g>
	</g>
	<g id="XMLID_48_">
		<path class="st2" d="M53.37,169.03h12.13v2.83h-4.03V212h-3.61v-40.14h-4.49V169.03z"/>
		<path class="st2" d="M72.26,181.05c0-5.19,0.65-8.58,1.95-10.17c1.3-1.59,3.3-2.38,6.01-2.38c2.7,0,4.57,0.88,5.59,2.64
			c0.68,1.19,1.11,2.57,1.29,4.15c0.18,1.58,0.27,3.5,0.27,5.76v18.29c0,3.73-0.22,6.35-0.67,7.87c-0.45,1.52-0.95,2.61-1.5,3.26
			c-1.17,1.35-2.95,2.03-5.35,2.03c-3.56,0-5.79-1.54-6.69-4.61c-0.6-2.02-0.9-4.87-0.9-8.54V181.05z M83.73,180.75
			c0-3.42-0.25-5.82-0.74-7.2c-0.5-1.38-1.51-2.08-3.04-2.08c-1.53,0-2.59,0.71-3.17,2.14c-0.59,1.42-0.88,3.8-0.88,7.12v18.6
			c0,3.96,0.2,6.49,0.61,7.59c0.41,1.11,0.86,1.82,1.35,2.12c0.5,0.31,1.15,0.46,1.97,0.46c0.81,0,1.46-0.15,1.95-0.46
			c0.49-0.31,0.94-1.01,1.34-2.11c0.41-1.1,0.61-3.63,0.61-7.6V180.75z"/>
		<path class="st2" d="M107.14,181.61c0-4.44,0.44-7.54,1.32-9.28c1.27-2.55,3.36-3.83,6.27-3.83c1.87,0,3.3,0.37,4.3,1.1
			c0.99,0.73,1.64,1.53,1.93,2.39c0.55,1.61,0.88,3.15,0.99,4.6c0.11,1.46,0.16,3.11,0.16,4.97v3.59h-3.71v-6.64
			c0-2.44-0.24-4.22-0.73-5.35s-1.46-1.68-2.92-1.68c-1.46,0-2.48,0.73-3.08,2.19c-0.59,1.46-0.89,3.98-0.89,7.56v17.53
			c0,4.05,0.26,6.86,0.78,8.42c0.52,1.56,1.55,2.34,3.08,2.34c1.53,0,2.56-0.79,3.08-2.37c0.52-1.58,0.78-4.36,0.78-8.35v-5.42
			h-3.69v-3.1h7.3V212h-2.39l-0.39-2.49c-0.6,1.01-1.31,1.76-2.12,2.25c-0.81,0.49-1.86,0.73-3.15,0.73c-2.41,0-4.16-1.05-5.26-3.16
			c-1.1-2.11-1.65-5.54-1.65-10.31V181.61z"/>
		<path class="st2" d="M131.98,169.03h11.35v2.83h-7.71v16.8h7.25v2.95h-7.25v17.5h7.64V212h-11.28V169.03z"/>
		<path class="st2" d="M148.86,169.03h12.13v2.83h-4.03V212h-3.61v-40.14h-4.49V169.03z"/>
		<path class="st2" d="M179.54,169.03h3.64V212h-3.64V169.03z"/>
		<path class="st2" d="M206.63,169.03h3.17V212h-2.83l-9.89-32.37l0.24,11.62V212h-3.42v-42.97h2.54l10.55,33.23l-0.37-14.79V169.03
			z"/>
		<path class="st2" d="M230.84,169.03h3.64v40.09h7.62V212h-11.25V169.03z"/>
		<path class="st2" d="M249.38,169.03h3.64V212h-3.64V169.03z"/>
		<path class="st2" d="M276.46,169.03h3.17V212h-2.83l-9.89-32.37l0.24,11.62V212h-3.42v-42.97h2.54l10.55,33.23l-0.37-14.79V169.03
			z"/>
		<path class="st2" d="M289.95,169.03h11.35v2.83h-7.71v16.8h7.25v2.95h-7.25v17.5h7.64V212h-11.28V169.03z"/>
	</g>
</g>
<g id="XMLID_16_">
	<g id="XMLID_381_">
		<path id="XMLID_444_" class="st8" d="M524.76,272.49c0,0-1.52,3.91-2.35,4.59c-0.83,0.68-2.73,1.9-2.26,2.49
			c0.48,0.59,3.83,0.68,4.63,0.33c0.8-0.36,0.93-1.65,2-2.07c1.07-0.42,0.26-2.62,0.15-3.42c-0.14-1.04-0.42-1.18-0.42-1.72
			C526.52,272.17,524.76,272.49,524.76,272.49z"/>
		<path id="XMLID_443_" class="st8" d="M539.31,271.48c0,0,0.38,1.57,0.56,1.99c0.18,0.42,1.43,2.55,1.66,2.82
			c0.24,0.27,3.65,1.75,3.21,2.23c-0.45,0.48-1.01,1.04-3.36,0.5c-2.35-0.53-3.06-2.35-4.9-2.53c-1.84-0.18-1.29-2.19-0.58-3.09
			c0.71-0.89,1.46-2.46,1.46-2.46L539.31,271.48z"/>
		<path id="XMLID_442_" class="st9" d="M548.2,248.48c-0.31,2.09-6.57,13.62-8.59,23.63c-0.02,0.08-0.04,0.15-0.06,0.22
			c-1.16-0.13-2.22-0.47-2.87-0.72c0.05-1.48,1.42-13.33,2.13-15.54c0.74-2.32,2.99-7.22,2.9-8.79c-0.09-1.57-1.1-2.62-1.78-3.4
			c-0.39-0.44-2.84-4.02-4.85-7.08l0,0c-1.15-1.76-2.16-3.35-2.55-4.08c-0.11-0.21-0.17-0.35-0.17-0.4c0-0.56-8.86-15.9,6.91-13.38
			c0,0,0.4,2.58,0.49,3.07c0.06,0.32,1.38,3.45,2.52,6.43c0.62,1.63,1.18,3.21,1.45,4.26c0.32,1.25,0.87,3.14,1.43,4.99c0,0,0,0,0,0
			c0.78,2.56,1.59,5.03,1.82,5.52C547.35,244.07,548.51,246.38,548.2,248.48z"/>
		<path id="XMLID_441_" class="st9" d="M532.7,231.91c0,0-1.21,5.22-1.88,7.31c-0.67,2.09-2.02,6.67-2.08,7.87
			c-0.06,1.2-0.06,3.83-0.15,4.9c-0.09,1.07,0.02,5.36-0.26,7.54c-0.28,2.18-1.41,12.75-1.5,13.42c0,0.01-0.01,0.03-0.01,0.05
			c-1.06,0.17-1.94,0.15-2.58,0.08c0-0.01-0.01-0.02-0.01-0.04c-0.62-2.91-1.29-13.7-1.33-15.44c-0.04-1.74,0.45-5.7,0.27-6.9
			c-0.18-1.2-1.83-13.54-1.29-18.53c0.53-4.99,2.24-13.23,2.24-13.23S541.83,212.58,532.7,231.91z"/>
		<path id="XMLID_440_" class="st10" d="M540.64,223.65c-0.04-0.45-0.51-3.56-0.91-5.57c-0.4-2.01-0.73-3.85-0.96-4.65
			c-0.01-0.05-0.04-0.14-0.07-0.27c-0.15-0.59-0.46-1.92-0.8-3.16c-0.02-0.09-0.05-0.17-0.07-0.26v-0.46
			c-0.24-0.86,0.13-1.3,0.21-1.96c0.02-0.2,0.02-0.41-0.04-0.67c0-0.01,0-0.02-0.01-0.03c-0.27-1.15-0.45-2.15-0.45-2.7
			c0-1.83-0.85-10.63-0.85-10.63s2.81,1.32,3.21,3.28c0.4,1.96,0.51,6.29,0.56,7.18c0.04,0.89,1.44,7.57,1.57,9.09
			c0.13,1.51,0.33,2.81,0.65,3.83c0.31,1.02,0.04,6.23,0.13,7.03C542.92,224.52,540.69,224.09,540.64,223.65z"/>
		<path id="XMLID_439_" class="st11" d="M538.71,213.16c-0.15-0.59-0.46-1.92-0.8-3.16c-0.01-1.01,0.12-1.98,0.13-2.68
			c0.01-0.27,0-0.49-0.04-0.67c0-0.01,0-0.02-0.01-0.03c-0.13-1.34-0.19-2.52-0.15-2.57c0.12-0.14,0.85-0.07,0.85-0.07
			S540.22,209.93,538.71,213.16z"/>
		<path id="XMLID_438_" class="st12" d="M534.9,185.41c0,0,2.2-6.45-2-8.45c-4.2-2-7.76,0.89-8.43,2.45
			c-0.67,1.56-0.49,4.41,0.08,6.39c0.57,1.98,0.49,5-0.76,6.01c-1.25,1.01-2.35,3.21-3.36,5.07c-1.01,1.86,8.98-4.39,8.98-4.39
			L534.9,185.41z"/>
		<path id="XMLID_437_" class="st10" d="M531.16,178.06c0,0,4.36,1.29,3.74,7.35c-0.62,6.06-3.47,5.75-3.74,5.79
			c-0.27,0.04-3.65,0.27-4.72-7.08C525.37,176.77,531.16,178.06,531.16,178.06z"/>
		<path id="XMLID_436_" class="st8" d="M533.22,192.2c0,0,4.24,1.09,4.64,1.8c0.4,0.71,0.45,3.83,0.71,4.85
			c0.27,1.02,0.85,3.2,0.45,4.09c-0.4,0.89-0.85,1.74-0.71,2.36c0.13,0.62,0.49,2.36,0.18,3.7c-0.31,1.34-0.49,4.1-0.09,6.01
			c0.4,1.92,0.8,3.61,0.85,3.92c0.04,0.31-15.13,0-15.13,0s1.23-4.28,1.68-5.26c0.45-0.98-0.4-4.77-0.8-5.66
			c-0.4-0.89-2.14-4.5-2.14-4.9c0,0-1.84-6.28-1.68-6.5c0.16-0.22,0.06-1.15,1.81-2.23c1.34-0.83,5.31-1.82,6.43-2
			C530.53,192.22,533.22,192.2,533.22,192.2z"/>
		<path id="XMLID_435_" class="st10" d="M533.24,190.09c0,0-0.19,2.16,0.2,3.4c0.39,1.25-4.36,1.19-4.75,0.24
			c-0.39-0.95,0.19-2.27-0.34-4.27C527.82,187.46,533.24,190.09,533.24,190.09z"/>
		<path id="XMLID_434_" class="st8" d="M537.55,197.54c0,0,1.21,1.56,1.67,3.26c0.41,1.53,0.05,3.09-0.92,4.27
			c0,0-4.04-0.2-5.47-0.17c-1.43,0.03-5.92,0.52-8.42,1.89c0,0-1.88-3.43-1.83-3.91c0.05-0.48,1.21-3.69,3.03-4.04
			c3.39-0.65,5.65,3.59,6.72,3.47C533.4,202.19,534.14,198,537.55,197.54z"/>
		<path id="XMLID_433_" class="st12" d="M530.03,180.76c0,0,2.37,3.77,4.87,4.65c0,0,1.36-6.33-4.27-7.66
			c-5.63-1.33-4.75,6.39-4.33,8.45C526.3,186.21,527.48,183.18,530.03,180.76z"/>
		<path id="XMLID_432_" class="st13" d="M528.99,190.34c0,0,1.73,1.8,3.94,0.19c0,0-0.18,1.15-1.77,1.3
			C529.57,191.98,528.99,190.34,528.99,190.34z"/>
		<path id="XMLID_431_" class="st14" d="M535.06,236.81L535.06,236.81L535.06,236.81c-1.15-1.76-2.16-3.35-2.55-4.08c0,0,0,0,0,0
			s1.56-3.93,1.72-5.47C534.39,225.72,535.06,236.81,535.06,236.81z"/>
		<path id="XMLID_430_" class="st10" d="M522.3,194.84c0,0-1.58,1.22-2.79,3.44c-1.2,2.23-3.96,6.15-4.5,7.44
			c-0.53,1.29-2.32,3.47-2.57,5.15c-0.25,1.64,0.42,2.24,1.49,2.95s8.65,3.05,8.65,3.05s1.34-2.15,0.66-2.3
			c-1.24-0.26-4.19-2.1-4.69-2.39c-0.54-0.32-1.89-1.46-1.22-2c0.67-0.53,5.21-7.17,6.14-8.47c0.94-1.29,2.63-4.45,2-6.06
			C524.86,194.05,523.4,194.23,522.3,194.84z"/>
		<path id="XMLID_429_" class="st10" d="M527.92,192.72c0,0,1.96,3.39,4.13,3.93c2.17,0.54,2.11-2.76,1.48-4.37
			c0,0-0.07-0.17-2.2-0.2C529.1,192.05,527.92,192.72,527.92,192.72z"/>
		
			<rect id="XMLID_428_" x="524.14" y="220.02" transform="matrix(0.1214 -0.9926 0.9926 0.1214 242.2299 713.7971)" class="st8" width="0.37" height="0.1"/>
		<path id="XMLID_392_" class="st8" d="M524.44,272.05c-0.03-0.24-0.05-0.49-0.08-0.74l0.1-0.01c0.03,0.25,0.05,0.49,0.08,0.74
			L524.44,272.05z M524.29,270.57c-0.02-0.24-0.05-0.49-0.07-0.74l0.1-0.01c0.02,0.25,0.05,0.49,0.07,0.74L524.29,270.57z
			 M524.14,269.09c-0.02-0.24-0.05-0.49-0.07-0.74l0.1-0.01c0.02,0.25,0.05,0.49,0.07,0.74L524.14,269.09z M524.01,267.61
			c-0.02-0.25-0.04-0.49-0.06-0.74l0.1-0.01c0.02,0.25,0.04,0.49,0.06,0.74L524.01,267.61z M523.89,266.13
			c-0.02-0.25-0.04-0.49-0.05-0.74l0.1-0.01c0.02,0.25,0.04,0.49,0.05,0.74L523.89,266.13z M523.79,264.65
			c-0.02-0.25-0.03-0.49-0.05-0.74l0.1-0.01c0.01,0.25,0.03,0.5,0.05,0.74L523.79,264.65z M523.7,263.17
			c-0.01-0.25-0.02-0.49-0.04-0.74l0.1,0c0.01,0.25,0.02,0.5,0.04,0.74L523.7,263.17z M523.63,261.68
			c-0.01-0.25-0.02-0.49-0.03-0.74l0.1,0c0.01,0.25,0.02,0.5,0.03,0.74L523.63,261.68z M523.59,260.2
			c-0.01-0.25-0.01-0.49-0.01-0.74l0.1,0c0,0.25,0.01,0.5,0.01,0.74L523.59,260.2z M523.57,258.71c0-0.18,0-0.37,0-0.55l0-0.19
			l0.1,0l0,0.19c0,0.18,0,0.37,0,0.55L523.57,258.71z M523.67,257.22l-0.1,0c0-0.25,0.01-0.5,0.01-0.74l0.1,0
			C523.67,256.73,523.67,256.98,523.67,257.22z M523.7,255.74l-0.1,0c0.01-0.25,0.02-0.5,0.03-0.74l0.1,0
			C523.71,255.25,523.71,255.49,523.7,255.74z M523.76,254.26l-0.1,0c0.01-0.25,0.03-0.5,0.04-0.74l0.1,0.01
			C523.78,253.76,523.77,254.01,523.76,254.26z M523.84,252.78l-0.1-0.01c0.02-0.25,0.04-0.5,0.06-0.74l0.1,0.01
			C523.88,252.28,523.86,252.53,523.84,252.78z M523.96,251.3l-0.1-0.01c0.01-0.09,0.02-0.17,0.02-0.26c0-0.02,0-0.05,0-0.08
			c0-0.09-0.01-0.22-0.02-0.4l0.1-0.01c0.01,0.18,0.02,0.31,0.02,0.41c0,0.04,0,0.07,0,0.09
			C523.98,251.13,523.97,251.21,523.96,251.3z M523.8,249.82c-0.02-0.22-0.05-0.47-0.08-0.74l0.1-0.01
			c0.03,0.27,0.06,0.52,0.08,0.74L523.8,249.82z M523.63,248.34l-0.09-0.74l0.1-0.01l0.09,0.74L523.63,248.34z M523.45,246.86
			c-0.03-0.24-0.06-0.49-0.09-0.74l0.1-0.01c0.03,0.25,0.06,0.5,0.09,0.74L523.45,246.86z M523.28,245.39
			c-0.03-0.24-0.06-0.49-0.08-0.74l0.1-0.01c0.03,0.25,0.06,0.5,0.08,0.74L523.28,245.39z M523.11,243.91
			c-0.03-0.24-0.05-0.49-0.08-0.74l0.1-0.01c0.03,0.25,0.05,0.49,0.08,0.74L523.11,243.91z M522.96,242.43
			c-0.02-0.25-0.05-0.49-0.07-0.74l0.1-0.01c0.02,0.25,0.05,0.49,0.07,0.74L522.96,242.43z M522.82,240.95
			c-0.02-0.25-0.04-0.49-0.06-0.74l0.1-0.01c0.02,0.25,0.04,0.49,0.06,0.74L522.82,240.95z M522.7,239.47
			c-0.02-0.25-0.04-0.5-0.05-0.74l0.1-0.01c0.02,0.24,0.03,0.49,0.05,0.74L522.7,239.47z M522.61,237.98
			c-0.01-0.25-0.03-0.5-0.04-0.74l0.1,0c0.01,0.24,0.02,0.49,0.04,0.74L522.61,237.98z M522.55,236.49
			c-0.01-0.26-0.01-0.51-0.01-0.74l0.1,0c0,0.24,0.01,0.49,0.01,0.74L522.55,236.49z M522.64,235.01l-0.1,0
			c0-0.26,0.01-0.51,0.02-0.74l0.1,0C522.65,234.5,522.64,234.75,522.64,235.01z M522.71,233.53l-0.1-0.01
			c0.01-0.11,0.02-0.23,0.04-0.33l0.05-0.41l0.1,0.01l-0.05,0.41C522.74,233.31,522.73,233.42,522.71,233.53z M522.89,232.06
			l-0.1-0.01l0.09-0.74l0.1,0.01L522.89,232.06z M523.08,230.58l-0.1-0.01l0.09-0.74l0.1,0.01L523.08,230.58z M523.26,229.11
			l-0.1-0.01l0.09-0.74l0.1,0.01L523.26,229.11z M523.44,227.63l-0.1-0.01l0.09-0.74l0.1,0.01L523.44,227.63z M523.62,226.16
			l-0.1-0.01l0.09-0.74l0.1,0.01L523.62,226.16z M523.81,224.68l-0.1-0.01l0.09-0.74l0.1,0.01L523.81,224.68z M523.99,223.21
			l-0.1-0.01l0.09-0.74l0.1,0.01L523.99,223.21z M524.17,221.73l-0.1-0.01l0.09-0.74l0.1,0.01L524.17,221.73z"/>
		
			<rect id="XMLID_391_" x="524.53" y="272.74" transform="matrix(0.9943 -0.1063 0.1063 0.9943 -26.0353 57.2983)" class="st8" width="0.1" height="0.37"/>
		<polygon id="XMLID_390_" class="st15" points="523.67,229.51 524.39,208.79 542.1,208.2 543.71,228.75 		"/>
		<path id="XMLID_389_" class="st10" d="M521.71,214.16c0,0,0.36,0.19,0.68,0.14c0.57-0.1,1.11-0.78,1.8-0.35
			c0.69,0.43-0.14,2.86-0.54,3.19c-0.4,0.33-1.51,0.03-2.84-1.02C519.48,215.05,521.71,214.16,521.71,214.16z"/>
		<path id="XMLID_388_" class="st10" d="M523.93,213.83c0,0,1.22,0.18,2.55,0.54c1.17,0.31,2.46,0.89,2.49,1.13
			c0.03,0.27-1.22-0.15-2.4-0.39c-1.08-0.22-0.91,0-0.91,0s-0.05-0.06,1.09,0.39c1.22,0.49,2.41,1.11,2.41,1.4
			c0,0.14-0.08,0.2-0.55,0.09c0.26,0.12,0.26,0.2,0.22,0.31c-0.22,0.55-2.13,0.09-2.89-0.09c0.58,0.14,0.99,0.31,0.62,0.56
			c-0.42,0.29-3.09-0.47-4.07-0.66C521.42,216.91,523.93,213.83,523.93,213.83z"/>
		<path id="XMLID_387_" class="st10" d="M540.9,211.18c0,0,1.76-0.41,2.33,0.44c0.57,0.85,0.59,1.94,0.45,2.44
			c-0.14,0.5-0.6,1.8-1.19,1.54C540.57,214.74,540.9,211.18,540.9,211.18z"/>
		<path id="XMLID_386_" class="st10" d="M542.65,211.19c0,0-0.25-1.19-0.72-0.99c-0.48,0.2-0.05,0.99-0.05,0.99L542.65,211.19z"/>
		<path id="XMLID_385_" class="st10" d="M540.9,211.18c0,0,0.03-0.68,1.26,0.02C543.39,211.89,540.9,211.18,540.9,211.18z"/>
		<path id="XMLID_384_" class="st16" d="M534.01,212.65c-1.07,0-1.93-0.33-2.57-0.97c-1.17-1.19-1.14-3.02-1.14-3.1l0.39,0.01
			l-0.2,0l0.2,0c0,0.02-0.03,1.74,1.03,2.81c0.57,0.58,1.35,0.86,2.33,0.85c0.95-0.01,1.69-0.3,2.2-0.88c1.01-1.13,0.83-2.98,0.83-3
			l0.39-0.04c0.01,0.08,0.2,2.04-0.92,3.3c-0.59,0.66-1.43,1-2.5,1.01C534.04,212.65,534.03,212.65,534.01,212.65z"/>
		<path id="XMLID_383_" class="st16" d="M523.03,217.25c-0.32,1.32-0.51,1.33-0.6,1.33c0,0-0.01,0-0.01,0
			c-0.15,0-0.22-0.21-0.26-0.36c-0.11-0.39-0.14-0.85-0.14-1.32c0.01-1.18,0.26-2.4,0.3-2.6c0-0.01,0.01-0.05,0.01-0.06l0.07,0.02
			l0,0l0.07,0.01c0,0.02-0.31,1.43-0.31,2.7c0,0.43,0.04,0.85,0.13,1.21c0.07,0.24,0.12,0.25,0.12,0.25c0.01,0,0.07-0.02,0.17-0.25
			c0.07-0.17,0.17-0.46,0.29-0.96C522.93,217.24,522.98,217.25,523.03,217.25z"/>
		<path id="XMLID_382_" class="st16" d="M526.85,180.19c0,0,1.25-2.42,3.36-2.53c2.11-0.11,3.36,1.72,3.36,1.72
			s-0.82-2.06-3.36-2.06C527.67,177.33,526.85,180.19,526.85,180.19z"/>
	</g>
	<g id="XMLID_284_">
		<g id="XMLID_378_">
			<g id="XMLID_379_">
				<polygon id="XMLID_380_" class="st17" points="500.25,271.22 499.75,272.58 496.25,271.27 496.52,269.64 				"/>
			</g>
		</g>
		<g id="XMLID_374_">
			<g id="XMLID_375_">
				<g id="XMLID_376_">
					<path id="XMLID_377_" class="st17" d="M507.39,204.18c0,0,1.46,9.64,1.56,10.5c0.21,1.81-2.09,15.96-2.09,15.96l-2.22-2.46
						c0,0,1.17-12.66,1.05-13.51c-0.29-2.01-2.24-8.63-2.24-8.63S505.89,203.36,507.39,204.18z"/>
				</g>
			</g>
		</g>
		<g id="XMLID_371_">
			<g id="XMLID_372_">
				<path id="XMLID_373_" class="st15" d="M499.91,272.13c0,0,1.05,2.83,2.18,3.31c1.12,0.48,4.54,1.91,4.48,2.58
					c-0.06,0.66,0.36,2.77-6.18,0.7c-6.54-2.07-6.85-2.9-6.26-4.02c0.59-1.12,1.59-2.86,2.26-3.91L499.91,272.13z"/>
			</g>
		</g>
		<g id="XMLID_368_">
			<g id="XMLID_369_">
				<polygon id="XMLID_370_" class="st18" points="504.98,226.57 507.43,228.91 507.38,231.56 504.18,228.39 				"/>
			</g>
		</g>
		<g id="XMLID_365_">
			<g id="XMLID_366_">
				<polygon id="XMLID_367_" class="st17" points="496.23,273.74 496.23,275.33 492.53,275.33 492.19,273.53 				"/>
			</g>
		</g>
		<g id="XMLID_362_">
			<g id="XMLID_363_">
				<path id="XMLID_364_" class="st15" d="M496.23,274.43c0,0,2,1.77,3.22,1.84c1.22,0.07,4.87,0.91,5.04,1.55
					c0.17,0.64,1.45,2.26-5.5,2.29c-6.86,0.03-7.45-0.15-7.28-1.41c0.17-1.26,0.39-2.96,0.66-4.18L496.23,274.43z"/>
			</g>
		</g>
		<g id="XMLID_359_">
			<g id="XMLID_360_">
				<path id="XMLID_361_" class="st18" d="M504.78,224.74c0,0,7.1,15.34,7.71,18.85c0.61,3.51-11.83,28.77-11.83,28.77l-4.43-2.82
					c0,0,8.24-21.9,8.47-23.05c0.23-1.14-8.85-17.22-8.85-17.22S497.68,225.2,504.78,224.74z"/>
			</g>
		</g>
		<g id="XMLID_356_">
			<g id="XMLID_357_">
				<path id="XMLID_358_" class="st18" d="M499.6,229.64l-1.36,21.5l-1.41,22.6h-4.99c0,0-0.95-19.31-1.18-21.9
					c-0.23-2.59-2.07-19.15-1.77-21.98C489.21,227.03,499.6,229.64,499.6,229.64z"/>
			</g>
		</g>
		<g id="XMLID_353_">
			<g id="XMLID_354_">
				<path id="XMLID_355_" class="st15" d="M505.21,227.42l-17.21,6.35c0,0-0.37-6.3,0-7.2L505.21,227.42z"/>
			</g>
		</g>
		<g id="XMLID_349_">
			<g id="XMLID_350_">
				<g id="XMLID_351_">
					<path id="XMLID_352_" class="st19" d="M500.56,195.14c0,0,5.26,1.81,5.91,2.88c0.65,1.08,1.65,5.82,1.65,5.82
						s-2.51,0.9-2.94,1.03c-0.43,0.12-0.58,2.99-1.07,6.21c-0.49,3.22,1.79,16.08,1.99,16.55c0,0-4.34,4.16-18.86,2.53
						c0,0,0.57-8.27,0.52-10.79c-0.04-2.07-1.02-9.23-1.02-9.23l-1.98-12.7c0,0,2.24-2.29,8.29-3.15
						C496.91,193.74,500.56,195.14,500.56,195.14z"/>
				</g>
			</g>
		</g>
		<g id="XMLID_345_">
			<g id="XMLID_346_">
				<g id="XMLID_347_">
					<path id="XMLID_348_" class="st17" d="M487.61,205.76c0,0-1.31,6.42-1.1,6.78c0.21,0.36,11.04,2.43,11.29,2.68
						c0.25,0.25-0.1,2.51-0.1,2.51s-15.29-0.76-15.67-2.01c-0.38-1.25,0-10.12,0.59-11.57C483.22,202.7,487.61,205.76,487.61,205.76
						z"/>
				</g>
			</g>
		</g>
		<g id="XMLID_341_">
			<g id="XMLID_342_">
				<g id="XMLID_343_">
					<path id="XMLID_344_" class="st17" d="M497.71,179.64c0,0-3.98,0.15-5.13,6.48c-1.33,7.32,3.52,8.18,6.1,5.92
						c2.58-2.26,4.84-6.3,4.27-8.73C502.38,180.88,499.45,179.87,497.71,179.64z"/>
				</g>
			</g>
		</g>
		<g id="XMLID_337_">
			<g id="XMLID_338_">
				<g id="XMLID_339_">
					<path id="XMLID_340_" class="st20" d="M493.67,182.78c0,0-1.17-3.82,3.07-4.47c4.24-0.64,5.98,2.89,6.68,3.22
						c0.7,0.33,1.95,3.06-0.34,5.62c-2.29,2.56-2.29,2.56-2.29,2.56s-0.26,0.02-0.81-1.96c-0.53-1.9-0.21-0.83-0.21-0.83l-1.33-0.56
						c0,0,0.31-0.77-1.4-1.77C495.28,183.56,493.67,182.78,493.67,182.78z"/>
				</g>
			</g>
		</g>
		<g id="XMLID_333_">
			<g id="XMLID_334_">
				<g id="XMLID_335_">
					<path id="XMLID_336_" class="st17" d="M499.5,185.85c0.21-0.56,1.42-0.9,1.74,0.41c0.32,1.31-1.5,2.41-1.89,2.08
						C498.95,188.01,499.16,186.78,499.5,185.85z"/>
				</g>
			</g>
		</g>
		<g id="XMLID_329_">
			<g id="XMLID_330_">
				<g id="XMLID_331_">
					<path id="XMLID_332_" class="st19" d="M484.76,197.44c0,0-1.64,2.01-2.83,7.32l6.36,1.12l2.02-4.92L484.76,197.44z"/>
				</g>
			</g>
		</g>
		<g id="XMLID_325_">
			<g id="XMLID_326_">
				<g id="XMLID_327_">
					<path id="XMLID_328_" class="st21" d="M488.13,205.5l-0.14-0.11c0.02-0.02,1.83-2.34,2.2-4.31l0.17,0.03
						C489.99,203.13,488.15,205.48,488.13,205.5z"/>
				</g>
			</g>
		</g>
		<g id="XMLID_321_">
			<g id="XMLID_322_">
				<g id="XMLID_323_">
					<path id="XMLID_324_" class="st21" d="M488.45,205.05l-0.09-0.15c0.02-0.01,1.73-1.11,2.15-2.35l0.16,0.05
						C490.24,203.91,488.53,205.01,488.45,205.05z"/>
				</g>
			</g>
		</g>
		<g id="XMLID_317_">
			<g id="XMLID_318_">
				<g id="XMLID_319_">
					<path id="XMLID_320_" class="st9" d="M506.96,207.58c0.54,0.09,0.65,0.61,0.65,0.61s0.5-0.19,0.86,0.23
						c0.36,0.42,0.09,0.72,0.09,0.72c-0.42,0.67-1.92,0.79-1.92,0.79s-0.68-1.33-0.33-2.05
						C506.3,207.88,506.41,207.49,506.96,207.58z"/>
				</g>
			</g>
		</g>
		<g id="XMLID_313_">
			<g id="XMLID_314_">
				<g id="XMLID_315_">
					<path id="XMLID_316_" class="st9" d="M504.94,203.71c0.64-0.22,1.05,0.29,1.05,0.29s0.43-0.49,1.06-0.25
						c0.63,0.24,0.51,0.73,0.51,0.73c-0.07,0.97-1.62,1.96-1.62,1.96s-1.51-1.05-1.54-2.03
						C504.4,204.42,504.29,203.93,504.94,203.71z"/>
				</g>
			</g>
		</g>
		<g id="XMLID_309_">
			<g id="XMLID_310_">
				<g id="XMLID_311_">
					<path id="XMLID_312_" class="st9" d="M509.48,203.37c0.79-0.07,1.11,0.62,1.11,0.62s0.62-0.43,1.27,0.02
						c0.65,0.45,0.37,0.96,0.37,0.96c-0.35,1.08-2.38,1.77-2.38,1.77s-1.42-1.61-1.18-2.72
						C508.67,204.02,508.69,203.44,509.48,203.37z"/>
				</g>
			</g>
		</g>
		<g id="XMLID_305_">
			<g id="XMLID_306_">
				<g id="XMLID_307_">
					<path id="XMLID_308_" class="st17" d="M499.28,191.23c0,0-0.24,2.54,0.05,3.47l1.23,0.44c0,0-0.24,5.21-3,5.46
						c0,0-3.68,0.19-6.36-5.98c0,0,1.14-0.29,1.72-0.57c0.49-0.23,1.25-1.47,0.75-3.8C493.17,187.93,499.28,191.23,499.28,191.23z"
						/>
				</g>
			</g>
		</g>
		<g id="XMLID_301_">
			<g id="XMLID_302_">
				<g id="XMLID_303_">
					<path id="XMLID_304_" class="st22" d="M495.79,192.97c1.44-0.06,2.53-1.04,2.55-1.05l-0.1-0.11c-0.02,0.02-1.94,1.74-4.02,0.66
						l-0.07,0.14C494.72,192.9,495.28,193,495.79,192.97z"/>
				</g>
			</g>
		</g>
		<g id="XMLID_298_">
			<g id="XMLID_299_">
				<path id="XMLID_300_" class="st23" d="M504.54,278.28c-0.05-0.95-2.67-1.61-5.1-1.91c-0.86-0.11-2.24-1.05-2.29-1.09l0.12-0.17
					c0.01,0.01,1.39,0.96,2.2,1.06c1.56,0.19,5.2,0.78,5.28,2.1L504.54,278.28z"/>
			</g>
		</g>
		<g id="XMLID_295_">
			<g id="XMLID_296_">
				<polygon id="XMLID_297_" class="st24" points="501.47,210.31 505.98,210.74 503.47,219.06 499.31,218.86 				"/>
			</g>
		</g>
		<g id="XMLID_290_">
			<g id="XMLID_291_">
				<g id="XMLID_292_">
					<g id="XMLID_293_">
						<path id="XMLID_294_" class="st10" d="M499.67,215c0,0,0.85-1.93,0.84-2.32c-0.01-0.4,0.82-0.62,0.73,0.34
							c-0.09,0.96-0.15,1.56-0.15,1.56L499.67,215z"/>
					</g>
				</g>
			</g>
		</g>
		<g id="XMLID_285_">
			<g id="XMLID_286_">
				<g id="XMLID_287_">
					<g id="XMLID_288_">
						<path id="XMLID_289_" class="st10" d="M499.75,214.78c0,0,0.16-0.22,1.21-0.49c1.63-0.42,3.72-0.71,4.02-0.45
							c0.43,0.37,0.11,0.69-0.9,0.8c-1,0.12-1.33,0.15-1.33,0.15s1.87,0.2,2.24,0.51c0.37,0.3,0.29,0.82-0.03,0.84
							c-0.32,0.02-1.04-0.07-1.04-0.07s0.77,0.19,0.79,0.52c0.01,0.24-0.03,0.58-0.79,0.57c0,0,0.39,0.66-0.44,0.86
							c-0.82,0.2-2.25,0.25-2.95,0.22c-1.46-0.06-4.63-0.89-4.63-0.89l1.35-2.29c0,0,1.09,0.14,1.63,0.07
							C499.6,215.03,499.75,214.78,499.75,214.78z"/>
					</g>
				</g>
			</g>
		</g>
	</g>
	<g id="XMLID_233_">
		<g id="XMLID_282_">
			<path id="XMLID_283_" class="st10" d="M363.52,243.11c0,0-0.83,5.02-1.11,5.72c-0.27,0.69-1.53,3.64-1.74,4.74
				c-0.21,1.1-5.56,16.86-5.53,17.9c0.03,1.04-2.4-0.73-2.32-3.15c0.15-4.58,1.13-10.79,1.6-13.26c0.47-2.46,2.76-6.96,2.72-8.73
				c-0.04-1.77-1.42-6.6-1.42-6.6L363.52,243.11z"/>
		</g>
		<g id="XMLID_280_">
			<path id="XMLID_281_" class="st10" d="M355.14,271.47c0,0,0.73,2.47,1.36,3.41c0.63,0.94,1.96,3.45,3.46,3.68
				c1.5,0.23,2.26,0.49,2.21,1.18c-0.05,0.69-4.95,0.34-5.83-0.36c-0.88-0.7-5.19-3.56-5.1-4.64c0.09-1.09,1.5-3.81,1.58-6.5
				C352.89,265.79,355.14,271.47,355.14,271.47z"/>
		</g>
		<g id="XMLID_278_">
			<path id="XMLID_279_" class="st10" d="M350.21,241.35c0,0-4.95,1.88-5.72,2.02c-0.77,0.13-4.07,0.61-5.17,1.01
				c-1.1,0.39-17.36,6.33-18.29,6.88c-0.92,0.55-1.68-1.02,0.18-2.66c1.86-1.64,11.03-7.69,13.49-8.56c2.46-0.88,7.7-1.31,9.27-2.24
				s5.19-4.53,5.19-4.53L350.21,241.35z"/>
		</g>
		<g id="XMLID_276_">
			<path id="XMLID_277_" class="st10" d="M321.03,251.25c0,0-1.84,1.86-2.35,2.85c-0.52,1-2.07,3.36-1.49,4.7
				c0.58,1.34,0.74,2.09,0.1,2.41c-0.64,0.31-2.9-3.86-2.73-4.94c0.17-1.08,0.47-6.05,1.5-6.53c1.02-0.48,3.6-0.08,5.83-1.7
				C324.12,246.43,321.03,251.25,321.03,251.25z"/>
		</g>
		<g id="XMLID_274_">
			<path id="XMLID_275_" class="st25" d="M364.72,198.73c0,0,4.28,10.25,5.05,10.51c0.77,0.26,8.86,0.47,8.86,0.47l0,2.08
				c0,0-11.69,1.86-12.22,0.9c-0.52-0.95-4.24-10.33-4.24-10.33S361.72,198.41,364.72,198.73z"/>
		</g>
		<g id="XMLID_272_">
			<path id="XMLID_273_" class="st8" d="M361.28,217.86c-0.32,1.8-0.33,2.66,0.03,3.67c0.21,0.58-15.07-2.31-14.54-2.9
				c0.43-0.48,0.97-1.13,1.66-2.94c0.5-1.3,1.47-3.22,0.75-8.79c-0.72-5.57-1.77-8.69,1.71-10.03c2.22-0.85,4.14-1.18,5.24-1.31
				c0,0,0,0,0,0c0.63-0.07,0.99-0.08,0.99-0.08l5.26,1.04c0,0,0.33,0.17,0.75,0.45c0.61,0.41,1.41,1.07,1.58,1.76
				c0.29,1.16,2.05,8.35,1.22,10.86C365.11,212.11,361.6,216.07,361.28,217.86z"/>
		</g>
		<g id="XMLID_270_">
			<path id="XMLID_271_" class="st10" d="M362.7,193.48c0,0-0.6,1.91-0.32,3.05c0.28,1.13-0.92,5.45-1.69,5.4
				c-0.77-0.06-3.61-4.57-3.57-6.44c0,0,1.89-2.55,1.68-6.19C358.59,185.66,362.7,193.48,362.7,193.48z"/>
		</g>
		<g id="XMLID_268_">
			<path id="XMLID_269_" class="st26" d="M362.06,194.13c-1.26-0.13-2-0.87-2.4-1.48c-0.44-0.67-0.57-1.31-0.58-1.33l0.15-0.03
				c0,0.01,0.13,0.64,0.56,1.29c0.57,0.86,1.37,1.34,2.38,1.42l-0.01,0.15C362.12,194.13,362.09,194.13,362.06,194.13z"/>
		</g>
		<g id="XMLID_266_">
			<path id="XMLID_267_" class="st10" d="M348.56,201.69c0,0,4.58,12.88,5.65,13.39c1.08,0.51,9.79-0.28,11.25-0.42
				c1.54-0.15,6.52-0.83,6.52-0.83s0.18-1.52-0.38-2.15c0,0-9.55,0.24-12.35,0.22c-2.79-0.02-2.67-1.59-3.79-5.16
				c-1.12-3.58-2.07-7.24-2.21-7.49c-0.14-0.25-1.04-2.53-3.29-1.61C347.8,198.53,348.56,201.69,348.56,201.69z"/>
		</g>
		<g id="XMLID_264_">
			<path id="XMLID_265_" class="st9" d="M348.43,215.69c0,0-0.69,1.58-1.56,2.78c-0.78,1.09-2.75,5.99-5.43,8.66
				c-3.01,3.01-9.99,9.72-10.62,9.87c0,0,17.81,12.79,32.95,7.15c0,0,1.53-7.61-2.68-23.42
				C361.1,220.73,351.58,221.58,348.43,215.69z"/>
		</g>
		<g id="XMLID_262_">
			<path id="XMLID_263_" class="st8" d="M349.43,205.36l5.85-1.92c0,0-0.51-6.61-4.81-6.19
				C346.18,197.67,349.43,205.36,349.43,205.36z"/>
		</g>
		<g id="XMLID_260_">
			<path id="XMLID_261_" class="st8" d="M364.94,202.43l1.46-0.51c0,0-0.85-3.96-3.27-4.94L364.94,202.43z"/>
		</g>
		<g id="XMLID_257_">
			<g id="XMLID_258_">
				<path id="XMLID_259_" class="st25" d="M377.3,209.81c0,0,1.29-0.18,1.51-0.89c0.19-0.6,0.86-1.25,1.07-1.45
					c0.28-0.27,0.83-1.4,1.17-1.06c0.34,0.35-0.82,1.92-0.99,2.3c-0.18,0.38,1.63-0.1,2.03,0.07c0.4,0.17,1.02,3.2-0.26,3.39
					c-1.28,0.18-2.76-0.46-2.98-0.38c-0.22,0.08-0.92,0.17-0.92,0.17L377.3,209.81z"/>
			</g>
		</g>
		<g id="XMLID_254_">
			<g id="XMLID_255_">
				<path id="XMLID_256_" class="st25" d="M381.78,208.75c0,0,3.94-0.3,4.22-0.1c0.28,0.2,0.28,0.41-0.08,0.46
					c-0.37,0.04-3.8,0.4-3.8,0.4s4.73,0.42,4.99,0.54c0.16,0.07,0.19,0.48-0.01,0.52s-4.9-0.11-4.9-0.11s4.41,0.4,4.61,0.57
					c0.17,0.14,0.1,0.53-0.23,0.52c-0.33-0.01-4.45-0.15-4.45-0.15s3.19,0.5,3.28,0.73c0.05,0.14,0.1,0.5-0.72,0.35
					c-0.82-0.15-2.79-0.31-2.79-0.31L381.78,208.75z"/>
			</g>
		</g>
		<g id="XMLID_249_">
			<g id="XMLID_250_">
				<g id="XMLID_251_">
					<g id="XMLID_252_">
						<path id="XMLID_253_" class="st17" d="M363.32,181.64c0,0,4.47,2.32,2.83,8.39c-1.64,6.06-5.92,5.92-7.56,0.64
							C356.94,185.37,358.13,180.09,363.32,181.64z"/>
					</g>
				</g>
			</g>
		</g>
		<g id="XMLID_244_">
			<g id="XMLID_245_">
				<g id="XMLID_246_">
					<g id="XMLID_247_">
						<path id="XMLID_248_" class="st27" d="M361.77,184.13c0,0,4.36,2.88,4.69,4.25c0,0,1.54-2.31-0.53-6.17
							c-2.07-3.86-7.05-3.89-9.81-1.43c-2.76,2.46-3.4,7.35-7.02,7.44c-3.62,0.09-5.92-1.55-6.78,2.64
							c-0.85,4.19-5.59,0.67-6.53,3.95c-0.94,3.28,3.25,7.75,9.21,3.8c5.95-3.95,7.02-0.53,9.32-0.53c2.3,0,5.09-0.09,4.65-6.06
							C358.54,186.06,361.77,184.13,361.77,184.13z"/>
					</g>
				</g>
			</g>
		</g>
		<g id="XMLID_241_">
			<g id="XMLID_242_">
				<path id="XMLID_243_" class="st22" d="M362.06,194.66c-0.15,0-1.68-0.06-2.92-2.43l0.12-0.06c1.23,2.36,2.79,2.36,2.81,2.36
					L362.06,194.66C362.07,194.66,362.07,194.66,362.06,194.66z"/>
			</g>
		</g>
		<g id="XMLID_238_">
			<g id="XMLID_239_">
				<path id="XMLID_240_" class="st10" d="M369.33,211.94c0,0,0.58-0.1,1.21-0.36c0.18-0.07,0.89-1.34,1.81-1.65
					c0.92-0.3,2.08-0.82,2.36-1.02c0.27-0.2,0.42,0.71-0.45,1.15c-0.87,0.44-1.06,0.96,0.65,1.17c0.94,0.12,4.39-0.52,4.14,0.09
					c-0.14,0.36-3.47,0.85-3.47,0.85s3.61-0.28,3.75-0.07c0.27,0.41-3.34,0.83-3.49,0.82c0,0,3.12-0.05,3.16,0.23
					c0.06,0.34-3.1,0.42-3.06,0.48c0,0,2.48-0.01,2.47,0.2c-0.01,0.28-2.18,0.47-2.61,0.45c-0.42-0.02-4.78,0.01-5.51-0.08
					c-0.73-0.09-2.16-0.37-2.16-0.37L369.33,211.94z"/>
			</g>
		</g>
		<g id="XMLID_236_">
			<path id="XMLID_237_" class="st28" d="M355.03,203.56l-0.25,0c0-0.02-0.01-2.18-0.69-3.95l0.24-0.09
				C355.02,201.34,355.03,203.54,355.03,203.56z"/>
		</g>
		<g id="XMLID_234_">
			<path id="XMLID_235_" class="st28" d="M355.01,203.2l-0.22-0.13c0.01-0.01,0.6-1.05,0.37-2.42l0.25-0.04
				C355.65,202.08,355.04,203.16,355.01,203.2z"/>
		</g>
	</g>
	<g id="XMLID_182_">
		<path id="XMLID_232_" class="st29" d="M469.16,178.5c0,0,2.16-0.57,3.21,1.34c1.05,1.91-3.12,7.84-1.37,10.26
			c1.55,2.14,2.97,1.06,2.97,1.06s-2.97,3.22-5.51-0.58c-1.53-2.28-0.87-4.76-0.79-6.82C467.76,181.71,469.16,178.5,469.16,178.5z"
			/>
		<path id="XMLID_231_" class="st30" d="M452.45,273.43c0,0-0.58,1.54-1.38,1.9c-0.8,0.37-2.63,2.05-3.36,2.18
			c-0.73,0.12-2.49,0.26-2.58,1.19c-0.1,0.93,0.09,1.77,3.62,1.28c3.53-0.49,6.87-2.12,6.87-2.12s0.71-3.58-0.44-5.35
			C454.04,270.74,452.45,273.43,452.45,273.43z"/>
		<path id="XMLID_230_" class="st10" d="M452.45,273.43l0.66-2.21h2.52v2.35C455.63,273.57,451.81,275.01,452.45,273.43z"/>
		<path id="XMLID_229_" class="st30" d="M474.6,269.27c0,0-0.25,1.6-0.64,2.08c-0.39,0.48-0.96,2.78-1.76,3.51
			c-0.8,0.73-2.76,2.38-2.16,3.21c0.6,0.83,4.79-0.23,6.29-2.79c1.5-2.55,2.01-2.84,1.82-3.54c-0.19-0.69-1.61-3.36-1.58-3.69
			C476.61,267.74,474.6,269.27,474.6,269.27z"/>
		<path id="XMLID_228_" class="st10" d="M473.98,268.12c0.03,0,0.51,0.72,0.61,1.15c0.11,0.42,1.03,0.59,1.78-0.33
			c0,0,0.23-0.33,0.2-0.88c-0.03-0.55-0.66-1.84-0.66-1.84L473.98,268.12z"/>
		<path id="XMLID_227_" class="st31" d="M456.97,212.94c-0.03,0.04-0.08,0.1-0.14,0.18v0c-0.16,0.19-0.41,0.49-0.72,0.86
			c-1.8,2.15-5.75,6.73-7.26,7.56c-1.07,0.59-1.23-1.26-0.17-2.39c0.97-1.03,4.7-7.7,6.15-9.13c0.7-0.7,1.65-7.28,1.65-7.28
			s0.87,5.49,0.78,6.12C457.16,209.5,457.59,212.18,456.97,212.94z"/>
		<path id="XMLID_226_" class="st10" d="M448.69,219.16c0,0-0.62,0.82-0.94,0.92c-0.32,0.1-0.69,0.67-0.96,0.82
			c-0.27,0.15-1.15,0.29-1.37,0.53c-0.09,0.1-0.37,0.93-0.57,1.12c-0.2,0.19-0.65,0.51-0.48,0.68c0.17,0.17,0.66-0.02,0.66-0.02
			s-0.17,0.18-0.07,0.37c0.2,0.37,0.47,0.37,0.47,0.37s-0.05,0.3,0.07,0.43c0.27,0.3,0.53,0.29,0.53,0.29s0.05,0.22,0.28,0.38
			c0.29,0.2,0.6,0.05,0.6,0.05s0.31,0.33,0.54,0.24c0.24-0.09,0.36-0.28,0.52-0.4c0.16-0.12,1.23-1.59,1.53-2.91
			c0.3-1.32,1.06-2.21,1.06-2.21L448.69,219.16z"/>
		<path id="XMLID_223_" class="st16" d="M449.04,228.78l-7.46-1.22l0.04-0.19c0.01-0.03,0.15-0.74,0.54-1.6
			c0.36-0.8,1.02-1.88,2.06-2.48c0.96-0.56,2.09-0.62,3.34-0.2c0.9,0.3,1.52,0.84,1.84,1.6c0.73,1.69-0.26,3.87-0.31,3.97
			L449.04,228.78z M442.02,227.26l6.8,1.11c0.19-0.48,0.82-2.22,0.25-3.54c-0.28-0.66-0.83-1.13-1.62-1.39
			c-1.15-0.39-2.17-0.33-3.04,0.17C442.83,224.52,442.18,226.62,442.02,227.26z"/>
		<polygon id="XMLID_222_" class="st9" points="429.38,248.4 453.28,251.51 457.33,229.62 432.34,225.35 		"/>
		<polygon id="XMLID_221_" class="st32" points="423.75,246.8 432.34,225.35 429.38,248.4 426.88,246.94 		"/>
		<path id="XMLID_218_" class="st16" d="M450.16,228.57l-7.99,0.02l0.01-0.2c0-0.03,0.03-0.8,0.29-1.76
			c0.24-0.9,0.74-2.13,1.72-2.94c0.91-0.75,2.07-1.01,3.45-0.79c0.99,0.16,1.72,0.61,2.2,1.35c1.05,1.64,0.4,4.08,0.37,4.19
			L450.16,228.57z M442.57,228.2l7.28-0.01c0.12-0.53,0.47-2.45-0.35-3.73c-0.41-0.64-1.06-1.03-1.93-1.17
			c-1.27-0.2-2.32,0.03-3.14,0.7C442.95,225.2,442.64,227.5,442.57,228.2z"/>
		<polygon id="XMLID_217_" class="st33" points="433.05,252.42 458.51,251.53 458.94,228.01 432.16,227.88 		"/>
		<polygon id="XMLID_216_" class="st34" points="426.91,251.72 432.16,227.88 433.05,252.42 430.19,251.33 		"/>
		<path id="XMLID_215_" class="st35" d="M445.07,223.05c0,0,0.93-1.24,1.47-1.26c0.53-0.02,0.22,0.44,0.22,0.44s0.3-0.47,0.7-0.27
			c0.4,0.2,0.01,0.73,0.01,0.73s0.32-0.29,0.65,0.05c0.32,0.34-0.11,0.7-0.11,0.7s0.69-0.16,0.6,0.41
			c-0.15,0.96-1.16,1.49-1.16,1.49s-0.26,0.1-0.54-0.24c0,0-0.61,0.3-0.88-0.43c0,0-0.78-0.1-0.61-0.72
			C445.43,223.95,444.6,223.8,445.07,223.05z"/>
		<path id="XMLID_214_" class="st36" d="M463.54,231.84c-0.13,0.64-0.98,3.3-1.92,6.26v0c-0.86,2.7-1.81,5.64-2.37,7.52
			c-0.21,0.7-0.37,1.25-0.45,1.59c-0.54,2.22,0.07,5.71,0.27,8.63c0.2,2.92-2.95,17.26-2.95,17.26c-0.74,0.35-4.03-0.57-4.03-0.57
			c0.54-1.04,1.27-18.9,0.98-20.03c-0.3-1.14-0.49-4.3-0.2-5.54c0.06-0.25,0.09-0.59,0.1-0.99c0.03-1.56-0.3-4.14-0.49-6.97
			c-0.25-3.56,1.14-12.41,1.33-13.2c0.02-0.07,0.05-0.18,0.08-0.3c0.36-1.24,1.54-4.76,1.54-4.76c2.38-0.71,4.17-0.84,5.5-0.56
			c1.77,0.36,2.74,1.42,3.23,2.77C465.32,226.17,463.71,231.01,463.54,231.84z"/>
		<path id="XMLID_213_" class="st37" d="M477.05,267.67l-3.25,1.38c-0.41-1.98-9.47-15.71-10.07-17.24c-0.6-1.53-1.23-4.5-1.23-5.59
			c0-0.19-0.01-0.52-0.04-0.95c-0.11-1.65-0.41-4.76-0.84-7.18c-0.08-0.45-0.17-0.88-0.26-1.27c-0.48-2.09-0.56-9.22-0.57-13.41
			c0-1.87,0.01-3.15,0.01-3.15s0.04-0.03,0.12-0.09c0.9-0.68,6.68-4.84,8.7-0.95c0.53,1.03,0.88,2.13,1.09,3.28
			c0.65,3.52,0.63,7.87,0.11,11.48c-0.45,3.09-1.92,7.09-2.17,10.33c-0.14,1.78-0.09,3.23,0.32,3.93c1.14,1.98,2.25,3.65,4.55,10.63
			C474.27,261.14,477.05,267.67,477.05,267.67z"/>
		<path id="XMLID_212_" class="st10" d="M464.04,177.65c0,0-4.48,0.15-4.66,6.64c-0.18,6.48,1.23,7.86,5.22,6.51
			c3.99-1.35,5.25-8.13,5.34-9.18C470.04,180.56,470.19,176.87,464.04,177.65z"/>
		<path id="XMLID_211_" class="st31" d="M472.14,199.63c0.02,2.23-2.55,7.57-2.94,9.22c-0.4,1.65-1.02,2.18-0.49,4.28
			c0.53,2.11,2.16,9.24,2.1,9.87c-0.07,0.63-14.7,2.93-16.91,2.51c0,0,2.7-10.07,2.9-11.22c0.2-1.15-0.24-5.48-0.34-6.7
			c-0.1-1.22-1.33-3.84-1.29-5.07c0.04-1.24,0.65-2.32,1.51-3.65c0.27-0.41,0.54-0.83,0.82-1.24c0.91-1.33,1.81-2.54,2.26-2.95
			c0.33-0.31,0.64-0.55,0.91-0.73c0,0,0,0,0,0c0.56-0.37,0.93-0.49,0.93-0.49l3.92-0.63c0,0,2.44,0.88,3.85,1.21
			C469.35,194.04,472.1,194.44,472.14,199.63z"/>
		<path id="XMLID_210_" class="st31" d="M460.65,193.95l-2.27,3.58l-2.1,3.31c0-0.02,0.14-0.52,0.38-1.97
			c0.05-0.28,0.09-0.58,0.15-0.93c0.02-0.1,0.04-0.2,0.07-0.3c0,0,0,0,0,0C457.77,195.56,460.54,194,460.65,193.95
			C460.65,193.95,460.65,193.95,460.65,193.95z"/>
		<path id="XMLID_209_" class="st10" d="M467.17,187.88c-0.4,0.75-0.81,5.38-0.81,5.38s-5.58,2.11-5.01,0.92
			c0.26-0.54,0.34-1.24,0.34-1.85c0-0.48-0.03-0.89-0.06-1.13c-0.01-0.12-0.03-0.19-0.03-0.19S467.57,187.13,467.17,187.88z"/>
		<path id="XMLID_208_" class="st13" d="M464.81,190.72c-0.86,1.26-3.12,1.6-3.12,1.6s0,0,0,0c0-0.48-0.03-0.89-0.06-1.13
			C463.08,191.48,464.81,190.72,464.81,190.72z"/>
		<path id="XMLID_207_" class="st31" d="M456.88,197.61L456.88,197.61c0,0-0.12,0.25-0.22,1.26l0.82-1.24c0,0,1.47-2.1,1.97-2.65
			c0.5-0.55,1.19-1.03,1.19-1.03S457.76,195.34,456.88,197.61z"/>
		<path id="XMLID_206_" class="st10" d="M461.58,193.46c0,0-2.63,4.04-1.74,4.4c0.89,0.35,5.71-0.47,7.76-4.31
			C467.6,193.54,464.54,191.97,461.58,193.46z"/>
		<path id="XMLID_205_" class="st31" d="M448.08,219.85c0,0,1.34,0.44,1.76,1.21c0,0,0.86-1.12,1.13-1.32l-2.03-0.88L448.08,219.85z
			"/>
		<path id="XMLID_204_" class="st38" d="M456.83,213.12L456.83,213.12c-0.16,0.19-0.75,0.91-1.06,1.28c0,0,0.71-5.98,0.68-6.75
			C456.52,208.27,456.94,211.79,456.83,213.12z"/>
		<polygon id="XMLID_203_" class="st9" points="461.66,221.2 477.69,216.36 474.02,201.34 456.97,205.75 		"/>
		<polygon id="XMLID_201_" class="st32" points="457.64,221.79 456.97,205.75 461.66,221.2 459.66,220.99 		"/>
		<path id="XMLID_200_" class="st31" d="M471.76,197.57c0,0-0.62-4.18-3.68-3.49c-2.94,0.66-0.18,6.14,0.03,6.79
			c0.22,0.65,2.39,5.95,2.58,6.64c0.6,2.19,0.04,2.25-0.86,2.76c-2.65,1.53-7.98,1.8-8.61,2.22c-0.63,0.42-0.72,1.36,0.34,1.4
			c1.38,0.06,9.23-0.68,10.33-0.79c1.06-0.1,3.18-0.19,2.62-3.97C474.14,206.59,471.76,197.57,471.76,197.57z"/>
		<path id="XMLID_198_" class="st10" d="M465.92,211.54c0,0-1.64,0.27-1.79,0.25c-0.15-0.02-0.8-1.09-1.55-1.28
			c-0.75-0.19-1.69-0.34-1.92-0.48c-0.23-0.14-0.29,0.59,0.43,0.89c0.72,0.3,0.9,0.7-0.45,0.97c-0.75,0.15-3.54-0.16-3.31,0.31
			c0.14,0.28,2.83,0.47,2.83,0.47s-2.9-0.01-3,0.16c-0.19,0.35,2.72,0.47,2.84,0.46c0,0-2.49,0.14-2.52,0.37
			c-0.03,0.28,2.5,0.16,2.48,0.21c0,0-1.98,0.14-1.96,0.31c0.03,0.22,1.77,0.25,2.11,0.21c0.34-0.04,3.76-0.43,4.33-0.54
			c0.58-0.12,1.54-0.18,1.54-0.18L465.92,211.54z"/>
		<path id="XMLID_197_" class="st10" d="M469.03,210.67c0,0-1.6,0.55-3.11,0.87c-1.51,0.32,0.05,2.12,0.05,2.12s2.61-0.25,3.86-0.36
			C470.29,213.26,469.03,210.67,469.03,210.67z"/>
		<path id="XMLID_191_" class="st16" d="M468.03,203.02c0.03,0.06,0.85,1.51,0.44,2.73c-0.18,0.54-0.58,0.95-1.18,1.21
			c-0.84,0.36-1.63,0.38-2.33,0.05c-0.76-0.36-1.27-1.07-1.57-1.6c-0.32-0.57-0.46-1.05-0.47-1.07l-0.03-0.12l5.08-1.31
			L468.03,203.02z M465.06,206.78c0.63,0.3,1.34,0.28,2.12-0.06c0.53-0.23,0.88-0.59,1.04-1.06c0.32-0.95-0.21-2.12-0.37-2.44
			l-4.64,1.16C463.36,204.83,463.93,206.24,465.06,206.78z"/>
		<path id="XMLID_190_" class="st31" d="M461.67,192.83c0,0,0.45,0.6,4.81-0.74l0.08,1.05c0,0,0.58,0.09,2.15,0.73
			c0,0-7.85,7.4-9.04,4.38c-1.19-3.02,1.83-4.76,1.83-4.76L461.67,192.83z"/>
		<path id="XMLID_189_" class="st29" d="M462.84,181.74c0,0,0.86,3.18,6,4.13c0,0,4.02-6.89-1.64-8.32
			c-5.66-1.44-7.48,2.92-7.65,5.06C459.54,182.61,461.06,181.64,462.84,181.74z"/>
		<path id="XMLID_187_" class="st29" d="M459.75,181.77c0,0,2.26-8.16,9.24-3.61c0,0,3.5,2.32-0.28,8.04
			C468.7,186.19,463.42,184.81,459.75,181.77z"/>
		<path id="XMLID_186_" class="st16" d="M465.26,211.65c0,0,0.55,0.68,0.31,2.05c0,0-0.13,0.17-0.58,0.06c0,0,0.02-1.47-0.42-2.01
			C464.58,211.75,464.78,211.6,465.26,211.65z"/>
		<path id="XMLID_185_" class="st10" d="M465.42,185.23c0.3-0.67,0.8-1.25,1.53-0.8c0.74,0.45,0.25,2.07-0.69,2.32
			C465.33,187.01,465.15,185.82,465.42,185.23z"/>
		<path id="XMLID_183_" class="st29" d="M467.22,185.73c0,0,0.81,1.1,0.61,2.18c0,0,1.16-1.21,1.08-2.04
			C468.82,185.04,467.22,185.73,467.22,185.73z"/>
	</g>
	<g id="XMLID_21_">
		<path id="XMLID_180_" class="st39" d="M406.83,184.59c0,0-1.19-7.85,5.17-7.71c6.36,0.15,6.28,4.03,6.16,7.88
			c-0.11,3.85-2.55,3.56,0.2,8.92c2.75,5.36-2.38,5.36-2.38,5.36l-3.98-5.59L406.83,184.59z"/>
		<path id="XMLID_179_" class="st15" d="M403.82,212.77c-0.03,0.04-0.08,0.1-0.14,0.17v0c-0.15,0.19-0.38,0.48-0.68,0.83
			c-1.7,2.08-5.43,6.5-6.85,7.3c-1.01,0.57-1.16-1.21-0.16-2.31c0.91-1,4.44-7.43,5.81-8.81c0.66-0.67,1.55-7.03,1.55-7.03
			s0.83,5.3,0.73,5.91C403.99,209.44,404.4,212.03,403.82,212.77z"/>
		<path id="XMLID_177_" class="st10" d="M395.99,218.77c0,0-0.59,0.79-0.89,0.89c-0.3,0.1-0.66,0.65-0.91,0.79
			c-0.25,0.14-1.09,0.28-1.29,0.52c-0.08,0.1-0.35,0.9-0.54,1.08c-0.19,0.18-0.62,0.5-0.46,0.66c0.16,0.16,0.62-0.02,0.62-0.02
			s-0.16,0.17-0.06,0.36c0.19,0.36,0.45,0.36,0.45,0.36s-0.05,0.29,0.07,0.42c0.26,0.29,0.5,0.28,0.5,0.28s0.05,0.22,0.26,0.37
			c0.27,0.19,0.57,0.04,0.57,0.04s0.29,0.32,0.51,0.24c0.22-0.09,0.34-0.27,0.49-0.38c0.15-0.11,1.16-1.53,1.45-2.81
			c0.29-1.27,1-2.14,1-2.14L395.99,218.77z"/>
		<path id="XMLID_173_" class="st16" d="M395.89,227.66l-6.84-2.1l0.06-0.17c0.01-0.03,0.23-0.69,0.7-1.46
			c0.44-0.72,1.18-1.67,2.23-2.12c0.97-0.41,2.03-0.34,3.16,0.22c0.8,0.4,1.32,0.99,1.53,1.76c0.48,1.71-0.72,3.68-0.77,3.76
			L395.89,227.66z M389.5,225.33l6.23,1.91c0.24-0.44,1.03-2.02,0.66-3.36c-0.19-0.66-0.64-1.18-1.35-1.53
			c-1.03-0.51-2-0.58-2.87-0.21C390.6,222.81,389.73,224.74,389.5,225.33z"/>
		<polygon id="XMLID_171_" class="st33" points="375.1,244.01 397.11,249.94 403.56,229.49 380.67,222.3 		"/>
		<polygon id="XMLID_170_" class="st34" points="370.02,241.77 380.67,222.3 375.1,244.01 372.93,242.29 		"/>
		<path id="XMLID_164_" class="st16" d="M396.96,227.59l-7.49-0.97l0.03-0.19c0.01-0.03,0.13-0.76,0.48-1.65
			c0.33-0.83,0.95-1.95,1.97-2.6c0.94-0.6,2.06-0.71,3.33-0.33c0.9,0.27,1.54,0.8,1.89,1.56c0.79,1.7-0.12,3.96-0.16,4.05
			L396.96,227.59z M389.91,226.3l6.82,0.89c0.18-0.5,0.74-2.29,0.12-3.62c-0.31-0.66-0.87-1.12-1.67-1.36
			c-1.16-0.35-2.18-0.26-3.03,0.29C390.62,223.47,390.05,225.64,389.91,226.3z"/>
		<polygon id="XMLID_163_" class="st9" points="378.05,248.31 402,250.61 405.26,228.15 380.19,224.7 		"/>
		<polygon id="XMLID_145_" class="st32" points="372.39,246.88 380.19,224.7 378.05,248.31 375.51,246.9 		"/>
		<path id="XMLID_142_" class="st35" d="M392.57,222.52c0,0,0.88-1.2,1.38-1.22c0.5-0.02,0.21,0.43,0.21,0.43s0.28-0.45,0.66-0.26
			c0.38,0.19,0.01,0.7,0.01,0.7s0.31-0.28,0.61,0.05c0.3,0.33-0.1,0.68-0.1,0.68s0.65-0.15,0.57,0.4c-0.14,0.93-1.1,1.44-1.1,1.44
			s-0.24,0.1-0.51-0.24c0,0-0.58,0.29-0.83-0.41c0,0-0.74-0.1-0.57-0.69C392.91,223.4,392.13,223.24,392.57,222.52z"/>
		<path id="XMLID_138_" class="st30" d="M399.02,273.11c0,0-2.5,4.33-3.55,5.04c-1.43,0.96-0.53,1.93,0.15,1.93
			c0.68,0,4.15,0.25,4.92-0.63c0.77-0.89,1.15-3.55,1.86-4.24c0.71-0.7,1.36-3.26-0.35-4.13
			C400.17,270.12,399.02,273.11,399.02,273.11z"/>
		<polygon id="XMLID_137_" class="st30" points="403,273.94 402.34,279.14 401.99,279.15 402.1,275.41 		"/>
		<path id="XMLID_136_" class="st30" d="M420.45,268.89c0,0-0.6,4.99-1.29,6.07c-0.94,1.46,0.26,1.99,0.89,1.71
			c0.62-0.28,3.91-1.46,4.26-2.59c0.35-1.13-0.34-3.72,0.04-4.65c0.38-0.93-0.03-3.55-1.93-3.65
			C420.33,265.68,420.45,268.89,420.45,268.89z"/>
		<path id="XMLID_135_" class="st30" d="M420.42,266.43c0,0-0.37,6.09-0.53,6.98c-0.16,0.89,1.14,0.31,1.81-0.38
			c0.67-0.69,1.36-4.93,1.31-5.66c-0.04-0.74-0.6-1.58-0.6-1.58L420.42,266.43z"/>
		<polygon id="XMLID_134_" class="st30" points="424.42,268.02 425.85,273.06 425.53,273.21 424.17,269.74 		"/>
		<path id="XMLID_131_" class="st10" d="M410.02,231.01c-0.12,0.61-0.92,3.19-1.81,6.04v0c-0.81,2.61-1.71,5.45-2.24,7.26
			c-0.2,0.68-0.35,1.21-0.43,1.53c-0.51,2.15,0.06,5.52,0.25,8.33c0.19,2.82-3.81,18.59-3.81,18.59c-0.7,0.33-2.02-1.92-2.02-1.92
			c0.51-1,0.44-18.79,0.16-19.89c-0.28-1.1-0.47-4.15-0.19-5.34c0.06-0.24,0.09-0.57,0.09-0.96c0.02-1.51-0.28-4-0.47-6.72
			c-0.23-3.44,1.07-11.98,1.26-12.74c0.02-0.07,0.04-0.17,0.08-0.29c0.34-1.2,1.45-4.6,1.45-4.6c2.25-0.68,3.94-0.81,5.2-0.54
			c1.67,0.35,2.59,1.37,3.05,2.67C411.7,225.53,410.18,230.21,410.02,231.01z"/>
		<path id="XMLID_127_" class="st10" d="M422.66,266.21l-2.27,0.82c-0.39-1.91-9.62-15.26-10.18-16.74
			c-0.56-1.48-1.16-4.34-1.16-5.39c0-0.19-0.01-0.5-0.04-0.91c-0.1-1.59-0.38-4.59-0.79-6.93c-0.08-0.44-0.16-0.85-0.24-1.22
			c-0.45-2.01-0.53-8.9-0.54-12.94c0-1.8,0.01-3.04,0.01-3.04s0.04-0.03,0.11-0.09c0.85-0.66,6.31-4.67,8.22-0.92
			c0.5,0.99,0.83,2.06,1.03,3.17c0.61,3.4,0.01,7.23-0.48,10.72c-0.42,2.99-1.23,7.21-1.46,10.34c-0.13,1.72-0.08,3.12,0.3,3.79
			c1.07,1.91,2.12,3.52,4.29,10.26C420.15,259.3,422.66,266.21,422.66,266.21z"/>
		<path id="XMLID_122_" class="st30" d="M416.31,232.72c-0.42,2.99-1.23,7.21-1.46,10.34c0,0-2.38,0.49-5.86,0.92
			c-0.94,0.12-1.96,0.23-3.03,0.33c-1.86,0.17-3.88,0.31-5.94,0.34c0.02-1.51-0.28-4-0.47-6.72c-0.23-3.44,1.07-11.98,1.26-12.74
			c0.02-0.07,0.04-0.17,0.08-0.29c1.68-0.94,4.09-1.58,6.53-2.01c1.07-0.19,2.15-0.34,3.17-0.45c3.2-0.37,5.87-0.42,6.2-0.43
			C417.41,225.4,416.81,229.23,416.31,232.72z"/>
		<path id="XMLID_119_" class="st10" d="M420.38,267.03c0,0,1.07,1.41,2.27-0.82C422.66,266.21,421.32,264.74,420.38,267.03z"/>
		<path id="XMLID_116_" class="st30" d="M399.96,270.84c0,0-2.72,5.44-3.21,6.19c-0.49,0.75,0.93,0.75,1.81,0.39
			c0.88-0.36,3.17-3.96,3.42-4.66c0.25-0.69,0.37-1.5,0.37-1.5L399.96,270.84z"/>
		<path id="XMLID_112_" class="st10" d="M399.96,270.84c0,0-1.44,2.77,2.39,0.42C402.35,271.26,401.63,270.02,399.96,270.84z"/>
		<path id="XMLID_110_" class="st10" d="M425.6,222.53c0,0,0.29,0.79,0.28,1.34c0,0.16-0.93,0.73-0.9,1.51
			c0.04,0.78-0.02,1.8-0.09,2.07c-0.07,0.26,0.64,0.11,0.72-0.67c0.08-0.78,0.4-1.07,1.04,0.15c0.35,0.67,0.86,3.45,1.24,3.09
			c0.22-0.21-0.36-2.86-0.36-2.86s0.82,2.79,1.01,2.84c0.38,0.09-0.34-2.75-0.38-2.86c0,0,0.85,2.36,1.06,2.31
			c0.27-0.06-0.56-2.45-0.52-2.44c0,0,0.7,1.87,0.85,1.8c0.2-0.09-0.27-1.78-0.41-2.09c-0.13-0.31-1.48-3.49-1.75-4
			c-0.27-0.52-0.75-1.63-0.75-1.63L425.6,222.53z"/>
		<path id="XMLID_109_" class="st10" d="M410.57,178.15c0,0-4.31,0.7-4.48,6.95c-0.17,6.26,1.16,7.59,4.93,6.29
			c3.77-1.3,4.96-7.85,5.05-8.87C416.16,181.51,416.38,177.39,410.57,178.15z"/>
		<path id="XMLID_107_" class="st15" d="M418.14,199.92c0.02,2.15-2.41,7.31-2.78,8.9c-0.37,1.59-0.96,2.1-0.47,4.14
			c0.5,2.04,2.04,8.92,1.98,9.53c-0.06,0.6-13.89,2.83-15.97,2.42c0,0,2.55-9.72,2.74-10.84c0.19-1.11-0.23-5.29-0.32-6.46
			c-0.09-1.18-1.26-3.71-1.22-4.89c0.04-1.2,0.62-2.24,1.43-3.52c0.25-0.4,0.51-0.8,0.78-1.2c0.86-1.28,1.71-2.45,2.13-2.85
			c0.31-0.3,0.6-0.53,0.86-0.7c0,0,0,0,0,0c0.53-0.36,0.88-0.48,0.88-0.48l3.7-0.6c0,0,2.31,0.85,3.64,1.17
			C415.51,194.52,418.1,194.91,418.14,199.92z"/>
		<path id="XMLID_106_" class="st10" d="M413.45,188.57c-0.37,0.72-0.77,5.2-0.77,5.2s-5.27,2.04-4.73,0.88
			c0.24-0.52,0.32-1.2,0.32-1.79c0-0.46-0.03-0.86-0.06-1.09c-0.01-0.12-0.02-0.19-0.02-0.19S413.82,187.85,413.45,188.57z"/>
		<path id="XMLID_103_" class="st39" d="M408.82,182.64c0,0,1.54,1.93,3.55,3.37c2.01,1.45,1.66,4.36,1.66,4.36
			s5.25-11.3,0.26-12.08c-4.99-0.78-8.05-0.84-8.2,6.81C406.09,185.1,408.36,182.58,408.82,182.64z"/>
		<path id="XMLID_102_" class="st13" d="M411.22,191.32c-0.81,1.22-2.95,1.55-2.95,1.55s0,0,0,0c0-0.46-0.03-0.86-0.06-1.09
			C409.59,192.05,411.22,191.32,411.22,191.32z"/>
		<path id="XMLID_99_" class="st15" d="M403.73,197.96L403.73,197.96c0,0-0.11,0.24-0.21,1.22l0.78-1.2c0,0,1.39-2.03,1.86-2.56
			c0.48-0.53,1.13-0.99,1.13-0.99S404.56,195.77,403.73,197.96z"/>
		<path id="XMLID_98_" class="st15" d="M414.44,202.11c0,0,3.97-1.72,4.91-1.99c0,0-1.63-6.06-4.99-5.68
			C410.74,194.85,414.44,202.11,414.44,202.11z"/>
		<path id="XMLID_96_" class="st10" d="M408.17,193.96c0,0-2.48,3.9-1.64,4.24c0.84,0.34,5.39-0.46,7.33-4.16
			C413.85,194.04,410.96,192.52,408.17,193.96z"/>
		<path id="XMLID_90_" class="st15" d="M395.41,219.43c0,0,1.27,0.43,1.66,1.17c0,0,0.81-1.08,1.07-1.27l-1.92-0.85L395.41,219.43z"
			/>
		<path id="XMLID_60_" class="st15" d="M425.86,223.63c0,0,1.1-0.54,1.7-0.58l-1.32-3.59l-1.9,0.84
			C424.34,220.3,425.85,223.46,425.86,223.63z"/>
		<path id="XMLID_26_" class="st30" d="M403.32,207.66c-0.01-0.05-0.01-0.08-0.01-0.09c0,0,0,0.01,0,0.02
			C403.32,207.61,403.32,207.63,403.32,207.66z"/>
		<path id="XMLID_23_" class="st40" d="M403.68,212.94L403.68,212.94c-0.15,0.19-1.08,1.32-1.37,1.68c0,0,1.04-6.21,1.01-6.95
			C403.38,208.26,403.78,211.66,403.68,212.94z"/>
		<path id="XMLID_22_" class="st15" d="M427.07,222.16c-0.81-2.74-2.55-7.97-2.89-9.06c-0.88-2.85-1.34-3.52-2.6-7.35
			c-0.49-1.49-1.49-3.89-2.23-5.62l0,0c-0.57-2.22-1.7-3.93-2.48-4.85c-0.78-0.92-3.01-1.24-3.01-1.24s0.31,0.42,0.77,1.03
			c-0.16,0.02-0.3,0-0.46,0.04c-2.97,0.77,0.43,5.79,0.67,6.46c0.24,0.67,4.47,8.1,4.78,8.77c1.06,2.34,1.68,2.88,2.49,5.09
			c1.09,2.98,2.86,5.92,3.73,7.56C426.18,223.68,427.38,223.21,427.07,222.16z"/>
	</g>
</g>
<g id="XMLID_28_" class="st41">
	<path class="st42" d="M53.06,110.58v-5.37h8.68v6.05c0,3.35,0.28,5.7,0.85,7.06c0.57,1.36,1.64,2.03,3.21,2.03s2.61-0.56,3.13-1.67
		c0.51-1.12,0.77-2.94,0.77-5.47s-0.46-4.73-1.37-6.61c-0.91-1.88-2.36-3.85-4.34-5.9l-4.44-4.58c-2.07-2.16-3.69-4.41-4.84-6.73
		c-1.15-2.32-1.73-5.01-1.73-8.07c0-4.97,0.96-8.66,2.87-11.07c1.91-2.42,5.21-3.62,9.88-3.62c4.67,0,7.83,1.41,9.48,4.22
		c1.65,2.81,2.48,6.92,2.48,12.32v3.73h-8.44v-4.31c0-2.92-0.25-5.01-0.75-6.27c-0.5-1.26-1.46-1.9-2.89-1.9
		c-1.42,0-2.45,0.48-3.08,1.44c-0.63,0.96-0.94,2.39-0.94,4.31s0.32,3.44,0.96,4.58c0.64,1.14,1.79,2.6,3.45,4.38l4.96,5.37
		c2.48,2.69,4.36,5.41,5.62,8.17c1.27,2.76,1.9,5.77,1.9,9.02c0,5.63-0.95,9.79-2.84,12.48c-1.89,2.69-5.2,4.03-9.93,4.03
		c-4.73,0-8.02-1.5-9.88-4.49C53.99,120.7,53.06,116.33,53.06,110.58z"/>
	<path class="st42" d="M88.26,127.5V75.28h-7.04v-7.93h22.93v7.93h-6.77v52.23H88.26z"/>
	<path class="st42" d="M106.48,127.5l8.58-60.16h12.1l9.13,60.16h-8.54l-1.44-10.73h-9.71l-1.3,10.73H106.48z M125.35,109.42
		l-4.03-30.21h-0.14l-3.69,30.21H125.35z"/>
	<path class="st42" d="M142.57,127.5V67.35h7.18l12.75,36.09l-0.65-16.41V67.35h8.24v60.16h-6.49L150.5,90.15l0.51,15.79v21.57
		H142.57z"/>
	<path class="st42" d="M179.08,127.5V67.35h13.5c4.42,0,7.63,1.3,9.62,3.91c1.99,2.61,2.99,6.45,2.99,11.54l0.03,27.14
		c0,6.06-1,10.5-3.01,13.33c-2.01,2.83-5.32,4.24-9.95,4.24H179.08z M188.24,120.39h3.01c1.69,0,2.91-0.55,3.67-1.64
		c0.76-1.09,1.14-3.1,1.14-6.02l-0.03-29.7c0-3.12-0.38-5.34-1.15-6.67c-0.76-1.32-2.08-1.98-3.95-1.98h-2.7V120.39z"/>
	<path class="st42" d="M223.27,127.5l8.58-60.16h12.1l9.13,60.16h-8.54l-1.44-10.73h-9.71l-1.3,10.73H223.27z M242.14,109.42
		l-4.03-30.21h-0.14l-3.69,30.21H242.14z"/>
	<path class="st42" d="M259.37,127.5V67.35h7.18l12.75,36.09l-0.65-16.41V67.35h8.24v60.16h-6.49L267.3,90.15l0.51,15.79v21.57
		H259.37z"/>
	<path class="st42" d="M295.87,127.5V67.35h13.5c4.42,0,7.63,1.3,9.62,3.91c1.99,2.61,2.99,6.45,2.99,11.54l0.03,27.14
		c0,6.06-1,10.5-3.01,13.33c-2.01,2.83-5.32,4.24-9.95,4.24H295.87z M305.03,120.39h3.01c1.69,0,2.91-0.55,3.67-1.64
		c0.76-1.09,1.14-3.1,1.14-6.02l-0.03-29.7c0-3.12-0.38-5.34-1.15-6.67c-0.76-1.32-2.08-1.98-3.95-1.98h-2.7V120.39z"/>
	<path class="st42" d="M341.6,110.58v-5.37h8.68v6.05c0,3.35,0.28,5.7,0.85,7.06c0.57,1.36,1.64,2.03,3.21,2.03s2.62-0.56,3.13-1.67
		c0.51-1.12,0.77-2.94,0.77-5.47s-0.46-4.73-1.37-6.61c-0.91-1.88-2.36-3.85-4.34-5.9l-4.44-4.58c-2.07-2.16-3.69-4.41-4.84-6.73
		s-1.73-5.01-1.73-8.07c0-4.97,0.96-8.66,2.87-11.07c1.91-2.42,5.21-3.62,9.88-3.62c4.67,0,7.83,1.41,9.48,4.22
		c1.65,2.81,2.48,6.92,2.48,12.32v3.73h-8.44v-4.31c0-2.92-0.25-5.01-0.75-6.27c-0.5-1.26-1.46-1.9-2.89-1.9
		c-1.42,0-2.45,0.48-3.08,1.44c-0.63,0.96-0.94,2.39-0.94,4.31s0.32,3.44,0.96,4.58c0.64,1.14,1.79,2.6,3.45,4.38l4.96,5.37
		c2.48,2.69,4.36,5.41,5.62,8.17c1.27,2.76,1.9,5.77,1.9,9.02c0,5.63-0.95,9.79-2.84,12.48c-1.89,2.69-5.2,4.03-9.93,4.03
		s-8.02-1.5-9.88-4.49C342.53,120.7,341.6,116.33,341.6,110.58z"/>
	<path class="st42" d="M396.02,124c-2.07,2.79-5.33,4.19-9.78,4.19s-7.76-1.49-9.96-4.46c-2.2-2.97-3.3-7.25-3.3-12.83V84.68
		c0-8.96,2.35-14.55,7.04-16.78c1.73-0.82,3.83-1.23,6.29-1.23c8.45,0,12.68,5.33,12.68,16v8.27h-8.85v-7.69
		c0-3.1-0.26-5.31-0.79-6.65c-0.52-1.33-1.55-2-3.08-2c-1.53,0-2.59,0.71-3.18,2.12c-0.59,1.41-0.89,3.58-0.89,6.49v28.1
		c0,3.24,0.28,5.55,0.85,6.94c0.57,1.39,1.61,2.08,3.11,2.08s2.54-0.71,3.11-2.12c0.57-1.41,0.85-3.75,0.85-7.01v-8.61h8.99v8.51
		C399.13,116.91,398.09,121.21,396.02,124z"/>
	<path class="st42" d="M403.84,127.5l8.58-60.16h12.1l9.13,60.16h-8.54l-1.44-10.73h-9.71l-1.3,10.73H403.84z M422.71,109.42
		l-4.03-30.21h-0.14l-3.69,30.21H422.71z"/>
	<path class="st42" d="M439.94,127.5V67.35h7.18l12.75,36.09l-0.65-16.41V67.35h8.24v60.16h-6.49l-13.09-37.36l0.51,15.79v21.57
		H439.94z"/>
</g>
<path id="XMLID_20_" class="st43" d="M360.09-76.74c-0.46,0-0.92,0-1.38,0"/>
<g id="XMLID_36_">
	<g id="XMLID_64_" class="st44">
		<g id="XMLID_658_">
			<g id="XMLID_667_">
				<circle id="XMLID_668_" class="st45" cx="100.06" cy="230.86" r="0.87"/>
			</g>
			<g id="XMLID_665_">
				<circle id="XMLID_666_" class="st45" cx="100.06" cy="233.59" r="0.87"/>
			</g>
			<g id="XMLID_663_">
				<circle id="XMLID_664_" class="st45" cx="100.06" cy="236.33" r="0.87"/>
			</g>
			<g id="XMLID_661_">
				<circle id="XMLID_662_" class="st45" cx="100.06" cy="239.06" r="0.87"/>
			</g>
			<g id="XMLID_659_">
				<circle id="XMLID_660_" class="st45" cx="100.06" cy="241.79" r="0.87"/>
			</g>
		</g>
	</g>
	<g id="XMLID_37_" class="st44">
		<g id="XMLID_39_">
			<g id="XMLID_463_">
				<circle id="XMLID_540_" class="st45" cx="100.08" cy="249.51" r="0.87"/>
			</g>
			<g id="XMLID_152_">
				<circle id="XMLID_158_" class="st45" cx="100.08" cy="252.24" r="0.87"/>
			</g>
			<g id="XMLID_139_">
				<circle id="XMLID_149_" class="st45" cx="100.08" cy="254.98" r="0.87"/>
			</g>
			<g id="XMLID_88_">
				<circle id="XMLID_114_" class="st45" cx="100.08" cy="257.71" r="0.87"/>
			</g>
			<g id="XMLID_59_">
				<circle id="XMLID_65_" class="st45" cx="100.08" cy="260.44" r="0.87"/>
			</g>
		</g>
	</g>
	<g id="XMLID_635_" class="st44">
		<g id="XMLID_637_">
			<g id="XMLID_647_">
				<circle id="XMLID_648_" class="st45" cx="100.06" cy="268.86" r="0.87"/>
			</g>
			<g id="XMLID_644_">
				<circle id="XMLID_645_" class="st45" cx="100.06" cy="271.59" r="0.87"/>
			</g>
			<g id="XMLID_642_">
				<circle id="XMLID_643_" class="st45" cx="100.06" cy="274.33" r="0.87"/>
			</g>
			<g id="XMLID_640_">
				<circle id="XMLID_641_" class="st45" cx="100.06" cy="277.06" r="0.87"/>
			</g>
			<g id="XMLID_638_">
				<circle id="XMLID_639_" class="st45" cx="100.06" cy="279.79" r="0.87"/>
			</g>
		</g>
	</g>
	<g id="XMLID_570_" class="st44">
		<g id="XMLID_578_">
			<g id="XMLID_611_">
				<circle id="XMLID_612_" class="st45" cx="100.08" cy="287.51" r="0.87"/>
			</g>
			<g id="XMLID_606_">
				<circle id="XMLID_607_" class="st45" cx="100.08" cy="290.24" r="0.87"/>
			</g>
			<g id="XMLID_603_">
				<circle id="XMLID_604_" class="st45" cx="100.08" cy="292.98" r="0.87"/>
			</g>
			<g id="XMLID_600_">
				<circle id="XMLID_601_" class="st45" cx="100.08" cy="295.71" r="0.87"/>
			</g>
			<g id="XMLID_596_">
				<circle id="XMLID_597_" class="st45" cx="100.08" cy="298.44" r="0.87"/>
			</g>
		</g>
	</g>
</g>
<g id="XMLID_678_">
	<g id="XMLID_874_" class="st44">
		<g id="XMLID_876_">
			<g id="XMLID_885_">
				<circle id="XMLID_886_" class="st45" cx="51.51" cy="292.19" r="0.87"/>
			</g>
			<g id="XMLID_883_">
				<circle id="XMLID_884_" class="st45" cx="51.51" cy="294.93" r="0.87"/>
			</g>
			<g id="XMLID_881_">
				<circle id="XMLID_882_" class="st45" cx="51.51" cy="297.66" r="0.87"/>
			</g>
			<g id="XMLID_879_">
				<circle id="XMLID_880_" class="st45" cx="51.51" cy="300.39" r="0.87"/>
			</g>
			<g id="XMLID_877_">
				<circle id="XMLID_878_" class="st45" cx="51.51" cy="303.12" r="0.87"/>
			</g>
		</g>
	</g>
	<g id="XMLID_798_" class="st44">
		<g id="XMLID_800_">
			<g id="XMLID_810_">
				<circle id="XMLID_811_" class="st45" cx="51.52" cy="310.84" r="0.87"/>
			</g>
			<g id="XMLID_807_">
				<circle id="XMLID_809_" class="st45" cx="51.52" cy="313.57" r="0.87"/>
			</g>
			<g id="XMLID_805_">
				<circle id="XMLID_806_" class="st45" cx="51.52" cy="316.31" r="0.87"/>
			</g>
			<g id="XMLID_803_">
				<circle id="XMLID_804_" class="st45" cx="51.52" cy="319.04" r="0.87"/>
			</g>
			<g id="XMLID_801_">
				<circle id="XMLID_802_" class="st45" cx="51.52" cy="321.77" r="0.87"/>
			</g>
		</g>
	</g>
	<g id="XMLID_760_" class="st44">
		<g id="XMLID_763_">
			<g id="XMLID_772_">
				<circle id="XMLID_773_" class="st45" cx="51.51" cy="330.19" r="0.87"/>
			</g>
			<g id="XMLID_770_">
				<circle id="XMLID_771_" class="st45" cx="51.51" cy="332.93" r="0.87"/>
			</g>
			<g id="XMLID_768_">
				<circle id="XMLID_769_" class="st45" cx="51.51" cy="335.66" r="0.87"/>
			</g>
			<g id="XMLID_766_">
				<circle id="XMLID_767_" class="st45" cx="51.51" cy="338.39" r="0.87"/>
			</g>
			<g id="XMLID_764_">
				<circle id="XMLID_765_" class="st45" cx="51.51" cy="341.12" r="0.87"/>
			</g>
		</g>
	</g>
	<g id="XMLID_679_" class="st44">
		<g id="XMLID_681_">
			<g id="XMLID_732_">
				<circle id="XMLID_735_" class="st45" cx="51.52" cy="348.84" r="0.87"/>
			</g>
			<g id="XMLID_720_">
				<circle id="XMLID_726_" class="st45" cx="51.52" cy="351.57" r="0.87"/>
			</g>
			<g id="XMLID_704_">
				<circle id="XMLID_713_" class="st45" cx="51.52" cy="354.31" r="0.87"/>
			</g>
			<g id="XMLID_684_">
				<circle id="XMLID_685_" class="st45" cx="51.52" cy="357.04" r="0.87"/>
			</g>
			<g id="XMLID_682_">
				<circle id="XMLID_683_" class="st45" cx="51.52" cy="359.77" r="0.87"/>
			</g>
		</g>
	</g>
</g>
<g id="XMLID_133_">
	<g id="XMLID_990_" class="st44">
		<g id="XMLID_992_">
			<g id="XMLID_1001_">
				<circle id="XMLID_1002_" class="st45" cx="54.97" cy="613.93" r="0.87"/>
			</g>
			<g id="XMLID_999_">
				<circle id="XMLID_1000_" class="st45" cx="54.97" cy="616.67" r="0.87"/>
			</g>
			<g id="XMLID_997_">
				<circle id="XMLID_998_" class="st45" cx="54.97" cy="619.4" r="0.87"/>
			</g>
			<g id="XMLID_995_">
				<circle id="XMLID_996_" class="st45" cx="54.97" cy="622.13" r="0.87"/>
			</g>
			<g id="XMLID_993_">
				<circle id="XMLID_994_" class="st45" cx="54.97" cy="624.87" r="0.87"/>
			</g>
		</g>
	</g>
	<g id="XMLID_962_" class="st44">
		<g id="XMLID_964_">
			<g id="XMLID_973_">
				<circle id="XMLID_974_" class="st45" cx="54.98" cy="632.58" r="0.87"/>
			</g>
			<g id="XMLID_971_">
				<circle id="XMLID_972_" class="st45" cx="54.98" cy="635.32" r="0.87"/>
			</g>
			<g id="XMLID_969_">
				<circle id="XMLID_970_" class="st45" cx="54.98" cy="638.05" r="0.87"/>
			</g>
			<g id="XMLID_967_">
				<circle id="XMLID_968_" class="st45" cx="54.98" cy="640.78" r="0.87"/>
			</g>
			<g id="XMLID_965_">
				<circle id="XMLID_966_" class="st45" cx="54.98" cy="643.52" r="0.87"/>
			</g>
		</g>
	</g>
	<g id="XMLID_934_" class="st44">
		<g id="XMLID_936_">
			<g id="XMLID_945_">
				<circle id="XMLID_946_" class="st45" cx="54.97" cy="651.93" r="0.87"/>
			</g>
			<g id="XMLID_943_">
				<circle id="XMLID_944_" class="st45" cx="54.97" cy="654.67" r="0.87"/>
			</g>
			<g id="XMLID_941_">
				<circle id="XMLID_942_" class="st45" cx="54.97" cy="657.4" r="0.87"/>
			</g>
			<g id="XMLID_939_">
				<circle id="XMLID_940_" class="st45" cx="54.97" cy="660.13" r="0.87"/>
			</g>
			<g id="XMLID_937_">
				<circle id="XMLID_938_" class="st45" cx="54.97" cy="662.87" r="0.87"/>
			</g>
		</g>
	</g>
	<g id="XMLID_141_" class="st44">
		<g id="XMLID_477_">
			<g id="XMLID_917_">
				<circle id="XMLID_918_" class="st45" cx="54.98" cy="670.58" r="0.87"/>
			</g>
			<g id="XMLID_914_">
				<circle id="XMLID_915_" class="st45" cx="54.98" cy="673.32" r="0.87"/>
			</g>
			<g id="XMLID_908_">
				<circle id="XMLID_910_" class="st45" cx="54.98" cy="676.05" r="0.87"/>
			</g>
			<g id="XMLID_538_">
				<circle id="XMLID_543_" class="st45" cx="54.98" cy="678.78" r="0.87"/>
			</g>
			<g id="XMLID_480_">
				<circle id="XMLID_488_" class="st45" cx="54.98" cy="681.52" r="0.87"/>
			</g>
		</g>
	</g>
</g>
<g id="XMLID_676_">
	<g id="XMLID_761_" class="st44">
		<g id="XMLID_821_">
			<g id="XMLID_830_">
				<circle id="XMLID_831_" class="st45" cx="192.53" cy="280.32" r="0.87"/>
			</g>
			<g id="XMLID_828_">
				<circle id="XMLID_829_" class="st45" cx="195.27" cy="280.3" r="0.87"/>
			</g>
			<g id="XMLID_826_">
				<circle id="XMLID_827_" class="st45" cx="198" cy="280.28" r="0.87"/>
			</g>
			<g id="XMLID_824_">
				<circle id="XMLID_825_" class="st45" cx="200.73" cy="280.27" r="0.87"/>
			</g>
			<g id="XMLID_822_">
				<circle id="XMLID_823_" class="st45" cx="203.46" cy="280.25" r="0.87"/>
			</g>
		</g>
	</g>
	<g id="XMLID_733_" class="st44">
		<g id="XMLID_833_">
			<g id="XMLID_842_">
				<circle id="XMLID_843_" class="st45" cx="211.18" cy="280.2" r="0.87"/>
			</g>
			<g id="XMLID_840_">
				<circle id="XMLID_841_" class="st45" cx="213.91" cy="280.18" r="0.87"/>
			</g>
			<g id="XMLID_838_">
				<circle id="XMLID_839_" class="st45" cx="216.65" cy="280.17" r="0.87"/>
			</g>
			<g id="XMLID_836_">
				<circle id="XMLID_837_" class="st45" cx="219.38" cy="280.15" r="0.87"/>
			</g>
			<g id="XMLID_834_">
				<circle id="XMLID_835_" class="st45" cx="222.11" cy="280.13" r="0.87"/>
			</g>
		</g>
	</g>
	<g id="XMLID_705_" class="st44">
		<g id="XMLID_845_">
			<g id="XMLID_854_">
				<circle id="XMLID_855_" class="st45" cx="230.53" cy="280.1" r="0.87"/>
			</g>
			<g id="XMLID_852_">
				<circle id="XMLID_853_" class="st45" cx="233.27" cy="280.08" r="0.87"/>
			</g>
			<g id="XMLID_850_">
				<circle id="XMLID_851_" class="st45" cx="236" cy="280.07" r="0.87"/>
			</g>
			<g id="XMLID_848_">
				<circle id="XMLID_849_" class="st45" cx="238.73" cy="280.05" r="0.87"/>
			</g>
			<g id="XMLID_846_">
				<circle id="XMLID_847_" class="st45" cx="241.46" cy="280.04" r="0.87"/>
			</g>
		</g>
	</g>
	<g id="XMLID_677_" class="st44">
		<g id="XMLID_856_">
			<g id="XMLID_865_">
				<circle id="XMLID_866_" class="st45" cx="249.18" cy="279.98" r="0.87"/>
			</g>
			<g id="XMLID_863_">
				<circle id="XMLID_864_" class="st45" cx="251.91" cy="279.96" r="0.87"/>
			</g>
			<g id="XMLID_861_">
				<circle id="XMLID_862_" class="st45" cx="254.65" cy="279.95" r="0.87"/>
			</g>
			<g id="XMLID_859_">
				<circle id="XMLID_860_" class="st45" cx="257.38" cy="279.93" r="0.87"/>
			</g>
			<g id="XMLID_857_">
				<circle id="XMLID_858_" class="st45" cx="260.11" cy="279.92" r="0.87"/>
			</g>
		</g>
	</g>
</g>
<g id="XMLID_1026_">
	<g id="XMLID_1216_" class="st44">
		<g id="XMLID_1218_">
			<g id="XMLID_1227_">
				<circle id="XMLID_1228_" class="st45" cx="217.37" cy="648.54" r="0.87"/>
			</g>
			<g id="XMLID_1225_">
				<circle id="XMLID_1226_" class="st45" cx="220.11" cy="648.52" r="0.87"/>
			</g>
			<g id="XMLID_1223_">
				<circle id="XMLID_1224_" class="st45" cx="222.84" cy="648.5" r="0.87"/>
			</g>
			<g id="XMLID_1221_">
				<circle id="XMLID_1222_" class="st45" cx="225.57" cy="648.49" r="0.87"/>
			</g>
			<g id="XMLID_1219_">
				<circle id="XMLID_1220_" class="st45" cx="228.31" cy="648.47" r="0.87"/>
			</g>
		</g>
	</g>
	<g id="XMLID_1188_" class="st44">
		<g id="XMLID_1190_">
			<g id="XMLID_1199_">
				<circle id="XMLID_1200_" class="st45" cx="236.02" cy="648.42" r="0.87"/>
			</g>
			<g id="XMLID_1197_">
				<circle id="XMLID_1198_" class="st45" cx="238.75" cy="648.4" r="0.87"/>
			</g>
			<g id="XMLID_1195_">
				<circle id="XMLID_1196_" class="st45" cx="241.49" cy="648.39" r="0.87"/>
			</g>
			<g id="XMLID_1193_">
				<circle id="XMLID_1194_" class="st45" cx="244.22" cy="648.37" r="0.87"/>
			</g>
			<g id="XMLID_1191_">
				<circle id="XMLID_1192_" class="st45" cx="246.95" cy="648.35" r="0.87"/>
			</g>
		</g>
	</g>
	<g id="XMLID_1160_" class="st44">
		<g id="XMLID_1162_">
			<g id="XMLID_1171_">
				<circle id="XMLID_1172_" class="st45" cx="255.37" cy="648.32" r="0.87"/>
			</g>
			<g id="XMLID_1169_">
				<circle id="XMLID_1170_" class="st45" cx="258.11" cy="648.3" r="0.87"/>
			</g>
			<g id="XMLID_1167_">
				<circle id="XMLID_1168_" class="st45" cx="260.84" cy="648.29" r="0.87"/>
			</g>
			<g id="XMLID_1165_">
				<circle id="XMLID_1166_" class="st45" cx="263.57" cy="648.27" r="0.87"/>
			</g>
			<g id="XMLID_1163_">
				<circle id="XMLID_1164_" class="st45" cx="266.3" cy="648.26" r="0.87"/>
			</g>
		</g>
	</g>
	<g id="XMLID_1029_" class="st44">
		<g id="XMLID_1132_">
			<g id="XMLID_1143_">
				<circle id="XMLID_1144_" class="st45" cx="274.02" cy="648.2" r="0.87"/>
			</g>
			<g id="XMLID_1140_">
				<circle id="XMLID_1141_" class="st45" cx="276.75" cy="648.18" r="0.87"/>
			</g>
			<g id="XMLID_1137_">
				<circle id="XMLID_1138_" class="st45" cx="279.49" cy="648.17" r="0.87"/>
			</g>
			<g id="XMLID_1135_">
				<circle id="XMLID_1136_" class="st45" cx="282.22" cy="648.15" r="0.87"/>
			</g>
			<g id="XMLID_1133_">
				<circle id="XMLID_1134_" class="st45" cx="284.95" cy="648.14" r="0.87"/>
			</g>
		</g>
	</g>
</g>
<g id="XMLID_24_">
	<path id="XMLID_621_" class="st46" d="M175.82,432.49l-65.13,0.61c-15.77,0.15-28.43,12.22-28.28,26.95l0.7,65.24l122.25-1.14
		l-0.7-65.24C204.51,444.18,191.6,432.35,175.82,432.49z"/>
	<polygon id="XMLID_620_" class="st47" points="190.9,524.29 97.59,525.16 97.44,510.8 190.75,509.93 	"/>
	<polygon id="XMLID_619_" class="st48" points="191.29,560.78 90.75,561.72 90.36,525.23 190.9,524.29 	"/>
	<path id="XMLID_618_" class="st47" d="M199.31,566.12l-109.23,1.02c-3.2,0.03-5.81-2.37-5.84-5.35l0,0l120.8-1.13l0,0
		C205.07,563.64,202.51,566.09,199.31,566.12z"/>
	<polygon id="XMLID_617_" class="st47" points="87.37,584.06 83.75,584.1 90.08,567.14 95.14,567.09 	"/>
	<polygon id="XMLID_616_" class="st47" points="202.38,582.99 206,582.95 199.31,566.12 194.25,566.16 	"/>
	<g id="XMLID_613_">
		<path id="XMLID_482_" class="st49" d="M71.88,443.93c-3.53-2.15-6.5-5.22-7.92-8.92c-1.42-3.7-1.16-8.04,1.15-11.33
			c2.31-3.29,6.77-5.27,10.88-4.44c0.11-5.18,5.17-8.99,10.07-11.41c5.4-2.66,11.05-4.23,16.62-1.9c3.1,1.29,6.37,3.42,8.04,6.19
			c1.66,2.77,2.67,5.83,3.65,8.87c3.85-2.19,9.14-1.91,12.71,0.67c3.57,2.58,5.18,7.29,3.88,11.33c4.37-1.78,9.67-2.6,13.73-0.27
			c4.27,2.45,5.78,7.56,6.13,12.23c0.29,4.01-0.09,8.28-2.5,11.61c-2.85,3.95-7.94,5.85-12.77,7.38c-8.35,2.64-16.95,4.87-25.76,5.2
			c-8.81,0.33-17.91-1.37-25.19-6.02c-7.28-4.65-12.47-12.51-12.3-20.75"/>
	</g>
	<g id="XMLID_610_">
		<path id="XMLID_907_" class="st50" d="M67.32,449.83c-4.39,0.26-8.52,2.89-10.38,6.61c-1.86,3.72-1.38,8.37,1.21,11.68
			c-3.64,0.08-7.16,2.14-8.82,5.17c-1.67,3.03-1.42,6.9,0.63,9.71c1.73,2.38,4.53,3.91,7.42,4.9c8.02,2.73,17.09,1.7,24.99-1.33
			c4.54-1.74,8.89-4.18,11.92-7.78c3.03-3.6,4.58-8.49,3.21-12.88c-0.96-3.06-3.23-5.66-5.91-7.64c-2.68-1.98-5.76-3.42-8.83-4.82
			c-5.29-2.4-10.83-4.77-16.71-4.82"/>
	</g>
	<path id="XMLID_609_" class="st48" d="M93.74,503.56l-25.32,0.24c-7.99,0.07-14.53-5.92-14.61-13.38l0,0
		c-0.08-7.47,6.33-13.58,14.32-13.65l20.06-0.19c2.9-0.03,5.28,2.15,5.31,4.86L93.74,503.56z"/>
	<path id="XMLID_608_" class="st48" d="M97.98,561.66l-16.85,0.16c-5.88,0.05-10.69-4.35-10.74-9.84l-0.81-75.22l16.85-0.16
		c5.88-0.05,10.69,4.35,10.74,9.84L97.98,561.66z"/>
	<g id="XMLID_598_">
		<g id="XMLID_605_">
			<path id="XMLID_906_" class="st0" d="M99.32,409.14c0,0,0.83-0.31,2.15-0.33c0.66-0.02,1.43,0.05,2.25,0.24
				c0.4,0.11,0.83,0.22,1.23,0.39c0.4,0.18,0.82,0.35,1.2,0.6c0.39,0.23,0.75,0.51,1.09,0.8c0.37,0.26,0.62,0.63,0.91,0.94
				c0.3,0.3,0.47,0.69,0.68,1c0.22,0.32,0.33,0.67,0.46,0.97c0.11,0.31,0.25,0.58,0.29,0.85c0.05,0.26,0.1,0.49,0.13,0.68
				c0.07,0.38,0.09,0.59,0.09,0.59s-0.11-0.19-0.3-0.51c-0.09-0.16-0.2-0.36-0.32-0.59c-0.1-0.23-0.31-0.45-0.46-0.72
				c-0.18-0.26-0.34-0.54-0.58-0.8c-0.24-0.26-0.43-0.57-0.72-0.82c-0.28-0.26-0.54-0.54-0.86-0.77c-0.3-0.25-0.62-0.48-0.98-0.67
				c-0.32-0.23-0.7-0.39-1.05-0.57c-0.36-0.16-0.72-0.31-1.08-0.44c-0.37-0.1-0.71-0.24-1.06-0.32c-0.34-0.09-0.67-0.16-0.98-0.23
				C100.19,409.21,99.32,409.14,99.32,409.14z"/>
		</g>
		<g id="XMLID_602_">
			<path id="XMLID_904_" class="st0" d="M137.88,435.24c0,0,0.89-0.13,2.21,0.09c0.66,0.12,1.43,0.3,2.21,0.64
				c0.4,0.15,0.78,0.37,1.18,0.59c0.36,0.27,0.77,0.49,1.11,0.8c0.35,0.31,0.68,0.62,0.96,0.99c0.32,0.33,0.54,0.73,0.75,1.1
				c0.24,0.36,0.36,0.77,0.5,1.13c0.16,0.36,0.22,0.73,0.27,1.06c0.05,0.34,0.12,0.64,0.11,0.91c-0.01,0.27-0.01,0.51-0.02,0.71
				c-0.02,0.39-0.04,0.6-0.04,0.6s-0.07-0.21-0.18-0.58c-0.05-0.18-0.11-0.4-0.18-0.65c-0.06-0.25-0.21-0.51-0.31-0.81
				c-0.11-0.3-0.24-0.61-0.42-0.91c-0.17-0.31-0.33-0.64-0.57-0.94c-0.11-0.15-0.22-0.31-0.33-0.47c-0.12-0.15-0.27-0.29-0.39-0.44
				c-0.25-0.31-0.56-0.58-0.87-0.84c-0.29-0.29-0.65-0.49-0.96-0.74c-0.36-0.19-0.67-0.45-1.02-0.61c-0.34-0.18-0.68-0.36-1.01-0.5
				c-0.33-0.16-0.65-0.28-0.94-0.41C138.74,435.48,137.88,435.24,137.88,435.24z"/>
		</g>
		<g id="XMLID_599_">
			<path id="XMLID_523_" class="st0" d="M123.27,423.58c0,0,0.4,0.01,0.96,0.18c0.28,0.1,0.61,0.2,0.94,0.38
				c0.34,0.16,0.66,0.4,0.98,0.65c0.29,0.28,0.58,0.57,0.78,0.9c0.1,0.16,0.2,0.32,0.25,0.49c0.06,0.16,0.14,0.31,0.16,0.46
				c0.09,0.29,0.1,0.54,0.1,0.71c0,0.17,0,0.27,0,0.27s-0.04-0.09-0.1-0.25c-0.04-0.16-0.16-0.37-0.28-0.62
				c-0.12-0.25-0.31-0.51-0.52-0.77c-0.21-0.27-0.47-0.52-0.74-0.76c-0.55-0.47-1.18-0.88-1.67-1.17
				C123.62,423.76,123.27,423.58,123.27,423.58z"/>
		</g>
	</g>
	<g id="XMLID_595_">
		<path id="XMLID_481_" class="st50" d="M136.73,458.32c1.05-3.69,0.65-7.85-1.67-11c-2.32-3.14-6.73-5.01-10.67-4.01
			c1.19-2.67-0.61-5.83-3.18-7.44c-2.58-1.61-5.74-2.08-8.77-2.7c-8.91-1.8-17.47-5.14-25.12-9.78c-3.87-2.35-4.5-1.8-6.36-5.64
			c-1.07,1.5-3.17,3.93-3.21,5.78c-3.46-2.9-10.34-3.13-12.65,0.15c-2.31,3.29-2.57,7.63-1.15,11.33c1.42,3.7,4.39,6.77,7.92,8.92
			l0.42-1.57c-0.17,8.24,5.02,16.1,12.3,20.75c7.28,4.65,16.38,6.35,25.19,6.02c8.12-0.3,16.06-2.22,23.8-4.59
			C134.98,462.64,136.1,460.56,136.73,458.32z"/>
	</g>
	<path id="XMLID_594_" class="st51" d="M89.36,486.5l0.71,65.91l-13.76,0.13l-0.6-55.59l-3.78,0.04c-3.98,0.04-7.24-2.95-7.28-6.67
		l0,0c-0.04-3.72,3.15-6.76,7.13-6.8l14.17-0.13C87.81,483.36,89.34,484.76,89.36,486.5z"/>
	<g id="XMLID_591_">
		<path id="XMLID_593_" class="st52" d="M103.19,431.83c-0.62-4.2,2.19-8.04,6.28-8.57c4.1-0.53,7.92,2.44,8.55,6.65
			c0.62,4.2-2.19,8.04-6.28,8.57C107.64,439.01,103.81,436.03,103.19,431.83z"/>
		<path id="XMLID_592_" class="st52" d="M103.19,431.83c0.62,4.2,4.45,7.18,8.55,6.65c1.7-0.22,3.17-1.02,4.28-2.16
			c-5.12-3.01-6.1-10.57-6.29-13.08c-0.08,0.01-0.17,0.01-0.25,0.02C105.37,423.79,102.56,427.63,103.19,431.83z"/>
	</g>
	<path id="XMLID_590_" class="st53" d="M92.44,449.33l3.02,12.14l10.16,2.61c0,0,3.58-3.41,3.57-4.09
		c-0.01-0.68-5.21-13.47-5.21-13.47L92.44,449.33z"/>
	<path id="XMLID_589_" class="st53" d="M103.98,446.52l-11.54,2.81l1.03,4.14c2.08,0.82,4.43,1.41,7.1,1.69
		c1.46,0.15,2.95-0.12,4.21-0.82c0.65-0.36,1.26-0.8,1.84-1.26C105.3,449.78,103.98,446.52,103.98,446.52z"/>
	<path id="XMLID_588_" class="st53" d="M76.26,425.15c0,0-1.16,26.37,24.17,27.49c7.93-2.78,12.88-12.96,11.35-21.06
		c-1.53-8.1-11.08-21.53-24.78-17.34C79.79,417,76.26,425.15,76.26,425.15"/>
	<path id="XMLID_587_" class="st53" d="M156.88,454.81l18.17-21.18c0.72-0.84,1.11-1.89,1.1-2.98l-0.06-5.71
		c0-0.44,0.29-0.83,0.73-0.97l0,0c0.7-0.23,1.43,0.26,1.44,0.95l0.04,4l6.39-10.88l8.67-0.76L182,436.33l-17.06,28.55L156.88,454.81
		z"/>
	<path id="XMLID_586_" class="st53" d="M237.69,435.13l30.48,9.18l9.27-7.45c3.47-2.79,8.6-3.1,12.26-0.54
		c2.13,1.49,3.25,3.59,0.87,6.43c-5.71,6.81-22.27,14.4-22.27,14.4l-34.07-6.44L237.69,435.13z"/>
	<path id="XMLID_585_" class="st54" d="M234.24,450.71l16.92,3.2c1.02-5.69,0.12-11.42-0.71-14.94l-12.76-3.84L234.24,450.71z"/>
	<path id="XMLID_584_" class="st55" d="M144.9,484.67c0,0,37.66-39.9,54.56-53.56c2.81-2.28,6.48-3.4,10.2-3.16
		c12.58,0.83,38.87,5.05,38.87,5.05s5.25,17.53-4.04,27.75c-5.79-0.62-31.89-5.11-31.89-5.11l-52.23,54.57L144.9,484.67z"/>
	<path id="XMLID_583_" class="st53" d="M246.02,469.53l24.87,25.45l20.54,3.09c3.82,0.57,6.24,4.32,4.77,7.65
		c-0.95,2.16-3.27,5.07-8.51,3.97c-12.33-2.59-23.94-5.86-23.94-5.86l-29.17-21.36L246.02,469.53z"/>
	<path id="XMLID_582_" class="st54" d="M261.34,485.21l-15.32-15.68l-11.44,12.95l20.39,14.93
		C258.27,494.16,261.06,490.02,261.34,485.21z"/>
	<path id="XMLID_581_" class="st56" d="M199.37,438.93l-52.66,48.73l13.65,22.55l52.23-54.57c0,0,26.09,4.49,31.89,5.11
		c0.59-0.65,1.12-1.33,1.6-2.04c-9.54-7.14-20.91-15.32-29.39-21.04C211.36,434.09,204.04,434.61,199.37,438.93z"/>
	<g id="XMLID_579_">
		<path id="XMLID_580_" class="st57" d="M124.16,506.49c0,0,13.21,17.45,31.99,15.25c17.54-2.06,36.73-25.93,50.21-46.24
			c1.38-2.08,4.52-2.35,6.28-0.54c10.89,11.18,30.12,27.72,30.12,27.72s18-8.28,17.86-21.12c-5.05-5.55-26.07-25.41-38.64-37.21
			c-5.42-5.09-14.11-5.45-20-0.84l-57.75,45.22L124.16,506.49z"/>
	</g>
	<g id="XMLID_576_" class="st58">
		<path id="XMLID_515_" class="st57" d="M156.15,521.74c17.54-2.06,36.73-25.93,50.21-46.24c1.38-2.08,4.52-2.35,6.28-0.54
			c10.89,11.18,30.12,27.72,30.12,27.72s4.2-1.93,8.52-5.38c-9.79-8.92-20.15-17.3-31.02-25.05c-3.52-2.51-7.69-5.09-12.03-4.24
			c-3.77,0.74-6.39,3.85-8.67,6.75c-4.94,6.27-9.87,12.53-14.81,18.8c-5.39,6.84-11.08,13.93-19.22,17.7
			c-6.94,3.22-15.3,3.65-22.58,1.16c-5.64-1.93-10.57-5.59-13.93-10.24l-4.86,4.3C124.16,506.49,137.37,523.95,156.15,521.74z"/>
	</g>
	<path id="XMLID_575_" class="st48" d="M194.29,502.62l25.32-0.24c7.99-0.07,14.4-6.19,14.32-13.65l0,0
		c-0.08-7.47-6.62-13.46-14.61-13.38l-20.06,0.19c-2.9,0.03-5.24,2.25-5.21,4.96L194.29,502.62z"/>
	<path id="XMLID_574_" class="st48" d="M191.29,560.78l16.85-0.16c5.88-0.05,10.59-4.55,10.53-10.04l-0.81-75.22l-16.85,0.16
		c-5.88,0.05-10.59,4.55-10.53,10.04L191.29,560.78z"/>
	<path id="XMLID_573_" class="st51" d="M197.68,485.48l0.71,65.91l13.76-0.13l-0.6-55.59l3.78-0.04c3.98-0.04,7.17-3.08,7.13-6.8
		l0,0c-0.04-3.72-3.3-6.7-7.28-6.67l-14.17,0.13C199.15,482.32,197.66,483.75,197.68,485.48z"/>
	<path id="XMLID_572_" class="st0" d="M82.9,437.25l-12.26,3.49c0,0,3.74,11.46,21.9,18.72l2.16-0.7c0,0,10.18,5.2,12.62-3.89
		c4.08-1.37,9.22-2.53,13.24-3.33c4.16-0.83,8.49-0.25,12.24,1.62l14.55,7.28c1.38,0.69,3.08,0.37,4.07-0.75l9.73-11.02l10.12,6.97
		l-13.7,20.84c-0.89,1.36-2.75,1.85-4.27,1.13l-13.61-6.43l8.08,11.42c0,0-0.5,20.96-23.62,23.88c-8.04-7.36-18.27-16.73-24.1-20.73
		c-5.83-4-24.76-15.32-29.88-20c-5.11-4.68-18.32-21.46-19.13-30.24c-0.05-4.73,28.85-8.38,28.85-8.38L82.9,437.25z"/>
	<path id="XMLID_571_" class="st59" d="M78.56,463.67c-15.22-9.54-21.76-22.13-24.57-30.81c-1.81,0.83-2.95,1.73-2.94,2.66
		c0.82,8.78,14.02,25.56,19.13,30.24c5.11,4.68,24.04,16,29.88,20c1.04,0.71,2.22,1.6,3.51,2.62
		C100.41,482.29,93.52,473.05,78.56,463.67z"/>
	<g id="XMLID_568_">
		<path id="XMLID_502_" class="st57" d="M125.8,462.6c0.58-0.19,1.19-0.3,1.8-0.37c0.61-0.08,1.24-0.1,1.86-0.07
			c0.31,0,0.62,0.05,0.94,0.08c0.31,0.03,0.62,0.11,0.93,0.17c0.31,0.06,0.62,0.14,0.92,0.26c0.3,0.1,0.61,0.2,0.89,0.35
			c0.28,0.15,0.59,0.26,0.86,0.44l0.8,0.54c0.25,0.2,0.48,0.43,0.72,0.64c0.25,0.21,0.45,0.46,0.65,0.71
			c0.19,0.26,0.42,0.49,0.57,0.78l0.48,0.84c0.18,0.27,0.27,0.58,0.38,0.88l0.33,0.89l-0.09-0.16c0.7,0.9,1.38,1.81,2.04,2.74
			c0.66,0.93,1.31,1.87,1.92,2.84c-0.84-0.79-1.64-1.6-2.43-2.43c-0.79-0.83-1.55-1.67-2.3-2.53l-0.04-0.04l-0.05-0.12l-0.35-0.79
			c-0.12-0.26-0.21-0.54-0.37-0.78l-0.44-0.74c-0.14-0.25-0.35-0.45-0.52-0.67c-0.18-0.22-0.34-0.45-0.56-0.63
			c-0.21-0.19-0.4-0.4-0.62-0.58l-0.69-0.49c-0.23-0.17-0.49-0.29-0.74-0.43c-0.24-0.15-0.51-0.25-0.78-0.36
			c-0.27-0.11-0.53-0.23-0.81-0.31c-0.28-0.09-0.55-0.19-0.84-0.24c-0.29-0.06-0.57-0.15-0.86-0.19c-0.58-0.1-1.17-0.18-1.77-0.22
			C127.01,462.57,126.41,462.57,125.8,462.6z"/>
	</g>
	<g id="XMLID_510_">
		<g id="XMLID_561_">
			<g id="XMLID_527_">
				<path id="XMLID_902_" class="st50" d="M96.96,433.67c0.7,1.02,1.26,2.84,2.86,2.58c0.56-0.09,0.81-0.44,1.24-0.76
					c0.3-0.36,0.72-0.51,1.25-0.45c0.54,0.77,0.45,1.36-0.26,1.79c-0.5,0.34-1.15,0.44-1.73,0.5c-0.53,0.06-0.54,0.9,0,0.84
					c1.02-0.11,2.1-0.33,2.78-1.17c0.53-0.65,0.68-1.56,0.14-2.25c-0.49-0.63-1.32-0.83-2.02-0.48c-0.66,0.33-1.13,1.42-2.08,1.03
					c-0.72-0.3-1.03-1.46-1.45-2.06C97.38,432.8,96.65,433.22,96.96,433.67L96.96,433.67z"/>
			</g>
		</g>
		<g id="XMLID_554_">
			<g id="XMLID_517_">
				<path id="XMLID_522_" class="st50" d="M93.74,442.65c3.39,2.6,8.09,1.97,10.58-1.51c0.32-0.44-0.42-0.86-0.73-0.43
					c-2.25,3.14-6.44,3.5-9.43,1.21C93.73,441.59,93.31,442.33,93.74,442.65L93.74,442.65z"/>
			</g>
		</g>
		<g id="XMLID_547_">
			<g id="XMLID_503_">
				<path id="XMLID_514_" class="st50" d="M85.91,431.96c0.77-1.91,2.75-2.84,4.74-2.53c0.53,0.08,0.76-0.73,0.22-0.81
					c-2.48-0.38-4.82,0.75-5.78,3.12C84.89,432.24,85.7,432.46,85.91,431.96L85.91,431.96z"/>
			</g>
		</g>
		<g id="XMLID_529_">
			<g id="XMLID_544_">
				<polygon id="XMLID_483_" class="st50" points="87.9,437.41 86.21,436.35 88.2,436.33 				"/>
			</g>
			<g id="XMLID_530_">
				<g id="XMLID_537_">
					<g id="XMLID_491_">
						<path id="XMLID_496_" class="st50" d="M88.43,437.51c0.91-2.35,3.43-3.26,5.75-2.56c0.52,0.16,0.74-0.66,0.22-0.81
							c-2.8-0.84-5.71,0.38-6.79,3.15C87.42,437.79,88.24,438.01,88.43,437.51L88.43,437.51z"/>
					</g>
				</g>
				<g id="XMLID_534_">
					<polygon id="XMLID_472_" class="st50" points="89.33,435.12 88.64,432.94 90.29,434.53 					"/>
				</g>
				<g id="XMLID_531_">
					<polygon id="XMLID_454_" class="st50" points="92.83,434.34 93.47,432.89 93.95,434.4 					"/>
				</g>
			</g>
		</g>
		<g id="XMLID_511_">
			<g id="XMLID_526_">
				<polygon id="XMLID_450_" class="st50" points="105.81,429.21 107.11,427.81 106.83,429.7 				"/>
			</g>
			<g id="XMLID_512_">
				<g id="XMLID_519_">
					<g id="XMLID_457_">
						<path id="XMLID_469_" class="st50" d="M106.88,429.37c-2.69-0.95-5.69,0.08-6.89,2.75c-0.22,0.49,0.51,0.92,0.73,0.43
							c1.06-2.34,3.56-3.2,5.94-2.36C107.17,430.37,107.39,429.55,106.88,429.37L106.88,429.37z"/>
					</g>
				</g>
				<g id="XMLID_516_">
					<polygon id="XMLID_447_" class="st50" points="103,429.55 102.76,427.29 104.05,429.16 					"/>
				</g>
				<g id="XMLID_513_">
					<polygon id="XMLID_160_" class="st50" points="100.47,432.04 99.55,430.67 101.13,431.13 					"/>
				</g>
			</g>
		</g>
	</g>
	<path id="XMLID_509_" class="st50" d="M179.13,434.12l14.13-42.91c0.37-1.12,1.45-1.9,2.7-1.94l26.18-0.88
		c2.01-0.07,3.49,1.72,2.93,3.52L211,436.47c-0.38,1.2-1.57,2.01-2.91,1.97l-26.23-0.76C179.91,437.62,178.56,435.86,179.13,434.12z
		"/>
	<path id="XMLID_508_" class="st60" d="M176.66,434.15l14.13-42.91c0.37-1.12,1.45-1.9,2.7-1.94l26.18-0.88
		c2.01-0.07,3.49,1.72,2.93,3.52l-14.08,44.56c-0.38,1.2-1.57,2.01-2.91,1.97l-26.23-0.76
		C177.44,437.64,176.09,435.88,176.66,434.15z"/>
	<path id="XMLID_507_" class="st0" d="M217.91,395.41l-9.44,29.85l-1.35,4.29l-0.64,2.02c-0.23,0.71-0.81,1.26-1.51,1.48
		c-0.28,0.08-0.56,0.13-0.85,0.12l-5.47-0.15l-15.82-0.46c-1.59-0.05-2.67-1.48-2.22-2.89l7.32-22.22l2.77-8.4l1.39-4.21
		c0.06-0.18,0.14-0.36,0.26-0.51c0.4-0.62,1.12-1.02,1.93-1.06l0.76-0.02l20.49-0.7C217.16,392.49,218.36,393.95,217.91,395.41z"/>
	<g id="XMLID_30_">
		<g id="XMLID_499_">
			<path id="XMLID_157_" class="st49" d="M79.79,441.17c2.91-6.36,3.63-13.59,2.02-20.34c1.11,3.22,4.89,5,8.48,5.39
				c3.59,0.39,7.22-0.24,10.83-0.1c3.61,0.14,7.53,1.29,9.38,4.19c0.34,0.53,0.72,1.18,1.38,1.23c0.82,0.06,1.29-0.85,1.46-1.6
				c1.28-5.61-1.25-11.73-5.98-15.4c-4.72-3.67-11.38-4.9-17.36-3.58c-5.98,1.32-11.22,5.04-14.56,9.86
				c-2.09,3.01-3.49,6.5-3.67,10.08c-0.18,3.59,0.93,7.28,3.36,10.06c0.6,0.69,1.34,1.35,2.27,1.53c0.93,0.18,2.06-0.32,2.2-1.2"/>
		</g>
		<g id="XMLID_32_">
			
				<ellipse id="XMLID_498_" transform="matrix(0.6929 -0.7211 0.7211 0.6929 -294.1703 191.6994)" class="st52" cx="77.95" cy="441.17" rx="8.12" ry="8.37"/>
			<g id="XMLID_495_">
				<path id="XMLID_497_" class="st52" d="M74.65,437.89c-5.04-13.87,1.03-19.17,1.3-19.52l0.18-0.02l0.04,0l0.18-0.01
					c-0.21,0.27-2.59,6.6,1.54,18L74.65,437.89z"/>
			</g>
			<path id="XMLID_35_" class="st52" d="M85.05,445.56c-12.61,3.25-14.76-3.06-14.78-7.62c-0.59,1.47-0.74,3.15-0.36,4.84
				c1.02,4.46,5.45,7.36,9.89,6.47C82.1,448.79,83.94,447.41,85.05,445.56z"/>
		</g>
	</g>
	<g id="XMLID_19_">
		<path d="M192.75,407.23l0.24-0.88l1.42-1.01c3.4-2.38,4.99-3.66,5.44-5.26c0.3-1.08,0.05-2.12-1.51-2.24
			c-0.95-0.07-1.88,0.35-2.48,0.73l-0.17-1.05c0.9-0.57,2.06-0.94,3.27-0.85c2.26,0.18,2.79,1.82,2.37,3.34
			c-0.54,1.96-2.38,3.44-5.19,5.43l-1.06,0.72l-0.01,0.03l4.72,0.37l-0.33,1.19L192.75,407.23z"/>
		<path d="M206.7,398.82l-0.03,0l-2.1,0.86l0.03-1.12l2.64-1.06l1.21,0.09l-2.92,10.63l-1.37-0.11L206.7,398.82z"/>
		<path d="M192.92,422.34c0.34-1.54,0.75-3.4,1.15-4.77l-0.05,0c-0.73,1.26-1.56,2.6-2.53,4.08l-3.4,5.2l-1.07-0.08l-0.32-5.39
			c-0.09-1.59-0.14-3.05-0.08-4.38l-0.03,0c-0.41,1.37-1,3.21-1.55,4.86l-1.59,4.71l-1.34-0.1l3.79-10.97l1.8,0.14l0.39,5.48
			c0.08,1.39,0.12,2.63,0.08,3.8l0.05,0c0.58-1.09,1.3-2.27,2.17-3.62l3.41-5.18l1.8,0.14l-2.35,11.08l-1.38-0.11L192.92,422.34z"/>
		<path d="M199.84,416.56l-3.03,11.03l-1.41-0.11l3.03-11.03L199.84,416.56z"/>
		<path d="M199.27,427.78l3.03-11.03l1.54,0.12l1.96,5.85c0.45,1.36,0.76,2.57,0.97,3.74l0.04-0.01c0.28-1.48,0.61-2.83,1.09-4.54
			l1.27-4.61l1.33,0.1l-3.03,11.03l-1.42-0.11l-1.92-5.86c-0.42-1.29-0.8-2.6-1.03-3.84l-0.05,0.01c-0.3,1.4-0.63,2.72-1.14,4.56
			l-1.3,4.71L199.27,427.78z"/>
	</g>
</g>
<g id="XMLID_165_">
	<circle id="XMLID_184_" class="st61" cx="403.91" cy="788.85" r="2.89"/>
	<circle id="XMLID_181_" class="st61" cx="413.04" cy="788.85" r="2.89"/>
	<circle id="XMLID_178_" class="st61" cx="422.18" cy="788.85" r="2.89"/>
	<circle id="XMLID_175_" class="st61" cx="431.31" cy="788.86" r="2.89"/>
	<circle id="XMLID_172_" class="st61" cx="440.44" cy="788.86" r="2.89"/>
	<circle id="XMLID_169_" class="st61" cx="449.57" cy="788.87" r="2.89"/>
	<circle id="XMLID_166_" class="st61" cx="458.7" cy="788.87" r="2.89"/>
</g>
<g id="XMLID_121_">
	
		<ellipse id="XMLID_140_" transform="matrix(0.9999 -0.0101 0.0101 0.9999 -0.3472 5.0122)" class="st62" cx="494.59" cy="36.78" rx="4.38" ry="4.38"/>
	
		<ellipse id="XMLID_132_" transform="matrix(0.9999 -0.0101 0.0101 0.9999 -0.3451 5.1521)" class="st62" cx="508.41" cy="36.64" rx="4.38" ry="4.38"/>
	<path id="XMLID_129_" class="st62" d="M522.18,32.13c2.42-0.02,4.4,1.91,4.42,4.33c0.02,2.42-1.91,4.4-4.33,4.42
		c-2.42,0.02-4.4-1.91-4.42-4.33C517.83,34.13,519.77,32.15,522.18,32.13z"/>
	
		<ellipse id="XMLID_126_" transform="matrix(0.9999 -0.0101 0.0101 0.9999 -0.3408 5.432)" class="st62" cx="536.05" cy="36.36" rx="4.38" ry="4.38"/>
	
		<ellipse id="XMLID_123_" transform="matrix(0.9999 -0.0101 0.0101 0.9999 -0.3387 5.572)" class="st62" cx="549.86" cy="36.22" rx="4.38" ry="4.38"/>
</g>
<g id="XMLID_143_">
	<circle id="XMLID_162_" class="st63" cx="544.21" cy="359.76" r="6.33"/>
	<circle id="XMLID_159_" class="st63" cx="544.21" cy="379.75" r="6.33"/>
	<circle id="XMLID_156_" class="st63" cx="544.21" cy="399.74" r="6.33"/>
	<circle id="XMLID_153_" class="st63" cx="544.21" cy="419.73" r="6.33"/>
	<circle id="XMLID_150_" class="st63" cx="544.21" cy="439.72" r="6.33"/>
	<circle id="XMLID_147_" class="st63" cx="544.21" cy="459.71" r="6.33"/>
	<circle id="XMLID_144_" class="st63" cx="544.21" cy="479.7" r="6.33"/>
</g>
<g id="XMLID_17_">
	<g>
		<path class="st64" d="M81.36,645.72c-1.5,2.07-3.89,3.1-7.19,3.1s-5.71-1.04-7.25-3.11s-2.31-5.2-2.31-9.39v-19.65
			c0-7.88,3.21-11.82,9.64-11.82c3.32,0,5.71,1,7.17,3c1.46,2,2.19,4.94,2.19,8.81v19.65C83.61,640.52,82.86,643.66,81.36,645.72z
			 M71.78,641.67c0.38,0.99,1.17,1.49,2.36,1.49c1.19,0,1.97-0.51,2.34-1.53c0.37-1.02,0.56-2.76,0.56-5.24v-20.02
			c0-2.03-0.19-3.52-0.57-4.46c-0.38-0.94-1.13-1.4-2.25-1.4c-1.12,0-1.9,0.47-2.34,1.4c-0.45,0.94-0.67,2.41-0.67,4.43v20.04
			C71.21,638.92,71.4,640.68,71.78,641.67z"/>
		<path class="st64" d="M98.19,628.15l-2.1-0.1v20.29h-6.54v-42.97h10.82c2.25,0,3.92,0.45,5.03,1.36c1.11,0.9,1.83,2.17,2.18,3.78
			c0.35,1.62,0.53,3.74,0.53,6.35s-0.28,4.6-0.83,5.97c-0.55,1.37-1.58,2.29-3.08,2.76c1.48,0.26,2.51,1.26,3.1,3
			c0.59,1.74,0.88,5.37,0.88,10.88s0.08,8.47,0.24,8.87h-6.54c-0.16-0.33-0.24-5.46-0.24-15.41c0-1.9-0.23-3.17-0.68-3.8
			C100.49,628.51,99.57,628.18,98.19,628.15z M96.11,622.97h2.61c0.83,0,1.44-0.19,1.84-0.56c0.4-0.37,0.67-1.02,0.83-1.93
			c0.15-0.91,0.23-2.3,0.23-4.17v-0.27c0-2.33-0.2-3.85-0.59-4.57c-0.39-0.72-1.29-1.07-2.71-1.07h-2.22V622.97z"/>
		<path class="st64" d="M139.08,645.83c-1.48,1.99-3.81,2.99-6.98,2.99s-5.55-1.06-7.12-3.19c-1.57-2.12-2.36-5.18-2.36-9.17v-18.73
			c0-6.4,1.68-10.39,5.03-11.99c1.24-0.59,2.73-0.88,4.49-0.88c6.04,0,9.06,3.81,9.06,11.43v5.91h-6.32v-5.49
			c0-2.21-0.19-3.8-0.56-4.75c-0.38-0.95-1.11-1.43-2.2-1.43c-1.09,0-1.85,0.5-2.27,1.51c-0.42,1.01-0.63,2.56-0.63,4.64v20.07
			c0,2.31,0.2,3.96,0.61,4.96c0.41,0.99,1.15,1.49,2.22,1.49s1.81-0.5,2.22-1.51c0.41-1.01,0.61-2.68,0.61-5v-6.15h6.42v6.08
			C141.3,640.77,140.56,643.84,139.08,645.83z"/>
		<path class="st64" d="M144.67,648.34l6.13-42.97h8.64l6.52,42.97h-6.1l-1.03-7.67h-6.93l-0.93,7.67H144.67z M158.15,635.42
			l-2.88-21.58h-0.1l-2.64,21.58H158.15z"/>
		<path class="st64" d="M170.45,648.34v-42.97h6.54v37.4h8.28v5.57H170.45z"/>
		<path class="st64" d="M189.03,648.34v-42.97h6.54v37.4h8.28v5.57H189.03z"/>
	</g>
</g>
<path id="XMLID_113_" class="st65" d="M95.22,341.41c-15.73,52.63-63.11-5.59-69.57,131.98c-2.77,59.03-144.42-77.05-144.42-131.98
	s40.08-82.51,99.17-82.51S116.04,271.74,95.22,341.41z"/>
<path id="XMLID_130_" class="st66" d="M635.67,632.13c-12.43,41.6-43.75-3.96-55,104.33C557,964.47,466.75,702.75,470.68,659.51
	c7.23-79.57,41.83,5.75,86.31-113.63C573.3,502.11,652.13,577.06,635.67,632.13z"/>
<g id="XMLID_911_">
	<g id="XMLID_1103_" class="st44">
		<g id="XMLID_1105_">
			<g id="XMLID_1114_">
				<circle id="XMLID_1115_" class="st45" cx="62.1" cy="608.71" r="0.87"/>
			</g>
			<g id="XMLID_1112_">
				<circle id="XMLID_1113_" class="st45" cx="64.83" cy="608.69" r="0.87"/>
			</g>
			<g id="XMLID_1110_">
				<circle id="XMLID_1111_" class="st45" cx="67.57" cy="608.68" r="0.87"/>
			</g>
			<g id="XMLID_1108_">
				<circle id="XMLID_1109_" class="st45" cx="70.3" cy="608.66" r="0.87"/>
			</g>
			<g id="XMLID_1106_">
				<circle id="XMLID_1107_" class="st45" cx="73.03" cy="608.65" r="0.87"/>
			</g>
		</g>
	</g>
	<g id="XMLID_1075_" class="st44">
		<g id="XMLID_1077_">
			<g id="XMLID_1086_">
				<circle id="XMLID_1087_" class="st45" cx="80.75" cy="608.59" r="0.87"/>
			</g>
			<g id="XMLID_1084_">
				<circle id="XMLID_1085_" class="st45" cx="83.48" cy="608.58" r="0.87"/>
			</g>
			<g id="XMLID_1082_">
				<circle id="XMLID_1083_" class="st45" cx="86.22" cy="608.56" r="0.87"/>
			</g>
			<g id="XMLID_1080_">
				<circle id="XMLID_1081_" class="st45" cx="88.95" cy="608.54" r="0.87"/>
			</g>
			<g id="XMLID_1078_">
				<circle id="XMLID_1079_" class="st45" cx="91.68" cy="608.53" r="0.87"/>
			</g>
		</g>
	</g>
	<g id="XMLID_1047_" class="st44">
		<g id="XMLID_1049_">
			<g id="XMLID_1058_">
				<circle id="XMLID_1059_" class="st45" cx="100.1" cy="608.49" r="0.87"/>
			</g>
			<g id="XMLID_1056_">
				<circle id="XMLID_1057_" class="st45" cx="102.83" cy="608.48" r="0.87"/>
			</g>
			<g id="XMLID_1054_">
				<circle id="XMLID_1055_" class="st45" cx="105.57" cy="608.46" r="0.87"/>
			</g>
			<g id="XMLID_1052_">
				<circle id="XMLID_1053_" class="st45" cx="108.3" cy="608.45" r="0.87"/>
			</g>
			<g id="XMLID_1050_">
				<circle id="XMLID_1051_" class="st45" cx="111.03" cy="608.43" r="0.87"/>
			</g>
		</g>
	</g>
	<g id="XMLID_916_" class="st44">
		<g id="XMLID_1019_">
			<g id="XMLID_1030_">
				<circle id="XMLID_1031_" class="st45" cx="118.75" cy="608.37" r="0.87"/>
			</g>
			<g id="XMLID_1027_">
				<circle id="XMLID_1028_" class="st45" cx="121.48" cy="608.36" r="0.87"/>
			</g>
			<g id="XMLID_1024_">
				<circle id="XMLID_1025_" class="st45" cx="124.21" cy="608.34" r="0.87"/>
			</g>
			<g id="XMLID_1022_">
				<circle id="XMLID_1023_" class="st45" cx="126.95" cy="608.33" r="0.87"/>
			</g>
			<g id="XMLID_1020_">
				<circle id="XMLID_1021_" class="st45" cx="129.68" cy="608.31" r="0.87"/>
			</g>
		</g>
	</g>
</g>
<g>
</g>
<g>
</g>
<g>
</g>
<g>
</g>
<g>
</g>
<g>
</g>
</svg>
